<svg data-v-c3ceb15a="" t="1684031333213" class="icon_cat" viewBox="0 0 1182 1024" version="1.1" xmlns="http://www.w3.org/2000/svg" p-id="6436" width="200" height="200"><path data-v-c3ceb15a="" d="M0 512l42.157696 73.142857 42.306662 73.142857 42.157696-73.142857 42.306663-73.142857H0zM211.086413 877.714286l42.306662 73.142857 42.157696 73.142857 42.306663-73.142857 42.157695-73.142857H211.086413z" fill="#E60012" p-id="6437"></path><path data-v-c3ceb15a="" d="M84.464358 658.285714l42.157696-73.142857 42.306663-73.142857 42.157696 73.142857 42.306662 73.142857H84.464358zM380.015129 877.714286l42.306663 73.142857 42.157696 73.142857 42.306663-73.142857 42.157695-73.142857H380.015129z" fill="#E60012" p-id="6438"></path><path data-v-c3ceb15a="" d="M295.550771 1024l42.306663-73.142857 42.157695-73.142857 42.306663 73.142857 42.157696 73.142857H295.550771zM0 512l42.157696-73.142857 42.306662-73.142857 42.157696 73.142857 42.306663 73.142857H0z" fill="#E60012" p-id="6439"></path><path data-v-c3ceb15a="" d="M84.464358 365.714286l42.157696 73.142857 42.306663 73.142857 42.157696-73.142857 42.306662-73.142857H84.464358zM211.086413 877.714286l42.306662-73.142857 42.157696-73.142858 42.306663 73.142858 42.157695 73.142857H211.086413zM1013.423334 512l42.306663 73.142857 42.157696 73.142857 42.306663-73.142857 42.157695-73.142857H1013.423334zM717.872563 0l42.157696 73.142857 42.306663 73.142857 42.157695-73.142857L886.80128 0H717.872563z" fill="#E60012" p-id="6440"></path><path data-v-c3ceb15a="" d="M633.408205 146.285714l42.157695-73.142857L717.872563 0l42.157696 73.142857 42.306663 73.142857H633.408205zM928.958976 365.714286l42.306663 73.142857 42.157695 73.142857 42.306663-73.142857 42.157696-73.142857H928.958976zM802.336922 146.285714l42.157695-73.142857L886.80128 0l42.157696 73.142857 42.306663 73.142857H802.336922z" fill="#E60012" p-id="6441"></path><path data-v-c3ceb15a="" d="M1013.423334 512l42.306663-73.142857 42.157696-73.142857 42.306663 73.142857 42.157695 73.142857H1013.423334zM802.336922 146.285714l42.157695 73.142857 42.306663 73.142858 42.157696-73.142858 42.306663-73.142857H802.336922zM928.958976 658.285714l42.306663-73.142857 42.157695-73.142857 42.306663 73.142857 42.157696 73.142857H928.958976zM717.872563 1024l42.157696-73.142857 42.306663-73.142857 42.157695 73.142857 42.306663 73.142857H717.872563zM211.086413 146.285714l42.306662 73.142857 42.157696 73.142858 42.306663-73.142858 42.157695-73.142857H211.086413zM211.086413 146.285714l42.306662-73.142857L295.550771 0l42.306663 73.142857 42.157695 73.142857H211.086413z" fill="#E60012" p-id="6442"></path><path data-v-c3ceb15a="" d="M295.550771 0l42.306663 73.142857 42.157695 73.142857 42.306663-73.142857L464.479488 0H295.550771zM802.336922 877.714286l42.157695-73.142857 42.306663-73.142858 42.157696 73.142858 42.306663 73.142857H802.336922zM802.336922 877.714286l42.157695 73.142857 42.306663 73.142857 42.157696-73.142857 42.306663-73.142857H802.336922zM633.408205 877.714286l42.157695 73.142857 42.306663 73.142857 42.157696-73.142857 42.306663-73.142857H633.408205z" fill="#E60012" p-id="6443"></path><path data-v-c3ceb15a="" d="M380.015129 146.285714l42.306663-73.142857L464.479488 0l42.306663 73.142857 42.157695 73.142857H380.015129zM928.958976 365.714286l42.306663-73.142857 42.157695-73.142858 42.306663 73.142858 42.157696 73.142857H928.958976zM717.872563 0H548.943846l42.306663 73.142857 42.157696 73.142857 42.157695-73.142857L717.872563 0zM84.464358 658.285714L126.622054 731.428571l42.306663 73.142858 42.157696-73.142858 42.306662-73.142857H84.464358zM548.943846 877.714286l42.157696 73.142857 42.306663 73.142857H464.479488l42.306663-73.142857 42.157695-73.142857zM886.80128 731.428571l42.157696 73.142858 42.306663 73.142857 42.157695-73.142857 42.306663-73.142858H886.80128zM126.622054 292.571429l42.306663-73.142858 42.157696-73.142857 42.306662 73.142857 42.157696 73.142858H126.622054zM506.786151 219.428571l-42.306663 73.142858-42.157696 73.142857h168.928717l-42.306663-73.142857-42.157695-73.142858zM591.250509 658.285714h168.77975l-42.157696 73.142857-42.306663 73.142858-42.157695-73.142858-42.157696-73.142857zM422.321792 365.714286h168.928717l-42.306663 73.142857-42.157695 73.142857-42.306663-73.142857-42.157696-73.142857zM675.5659 512l-42.157695 73.142857-42.157696 73.142857h168.77975l-42.157696-73.142857-42.306663-73.142857z" fill="#E60012" p-id="6444"></path><path data-v-c3ceb15a="" d="M506.786151 512h168.779749l-42.157695 73.142857-42.157696 73.142857-42.306663-73.142857-42.157695-73.142857z" fill="#E60012" p-id="6445"></path><path data-v-c3ceb15a="" d="M591.250509 365.714286l-42.306663 73.142857-42.157695 73.142857h168.779749l-42.157695-73.142857-42.157696-73.142857z" fill="#E60012" p-id="6446"></path></svg>