<svg t="1684740814480" class="icon" viewBox="0 0 1024 1024" version="1.1"
    xmlns="http://www.w3.org/2000/svg" p-id="2555" width="200" height="200">
    <path
        d="M529.066667 1024h-3.413334l-307.2-85.333333c-6.826667-3.413333-13.653333-10.24-13.653333-17.066667L153.6 221.866667c0-3.413333 0-10.24 3.413333-13.653334 3.413333 0 10.24-3.413333 13.653334-3.413333h682.666666c3.413333 0 10.24 3.413333 13.653334 6.826667 3.413333 3.413333 3.413333 6.826667 3.413333 13.653333l-68.266667 699.733333c0 6.826667-6.826667 13.653333-10.24 13.653334L535.893333 1024h-6.826666zM238.933333 907.946667l290.133334 81.92 238.933333-78.506667L832.853333 238.933333H187.733333L238.933333 907.946667z"
        fill="" p-id="2556"></path>
    <path
        d="M529.066667 853.333333h-3.413334l-153.6-34.133333c-6.826667 0-10.24-6.826667-13.653333-10.24l-34.133333-102.4c-3.413333-10.24 3.413333-17.066667 10.24-20.48 10.24-3.413333 17.066667 3.413333 20.48 10.24l30.72 92.16 139.946666 30.72 139.946667-47.786667 34.133333-361.813333H307.2c-10.24 0-17.066667-6.826667-17.066667-17.066667s6.826667-17.066667 17.066667-17.066666h409.6c3.413333 0 10.24 3.413333 13.653333 6.826666s3.413333 6.826667 3.413334 13.653334l-34.133334 392.533333c0 6.826667-6.826667 13.653333-10.24 13.653333L535.893333 853.333333h-6.826666z"
        fill="" p-id="2557"></path>
    <path
        d="M699.733333 580.266667H341.333333c-10.24 0-17.066667-6.826667-17.066666-17.066667s6.826667-17.066667 17.066666-17.066667h358.4c10.24 0 17.066667 6.826667 17.066667 17.066667s-6.826667 17.066667-17.066667 17.066667zM375.466667 102.4H307.2c-10.24 0-17.066667-6.826667-17.066667-17.066667v-68.266666c0-10.24 6.826667-17.066667 17.066667-17.066667h68.266667c10.24 0 17.066667 6.826667 17.066666 17.066667s-6.826667 17.066667-17.066666 17.066666H324.266667v34.133334H375.466667c10.24 0 17.066667 6.826667 17.066666 17.066666s-6.826667 17.066667-17.066666 17.066667zM546.133333 102.4h-68.266666c-10.24 0-17.066667-6.826667-17.066667-17.066667s6.826667-17.066667 17.066667-17.066666h27.306666L467.626667 30.72c-3.413333-3.413333-6.826667-13.653333-3.413334-17.066667 0-10.24 6.826667-13.653333 13.653334-13.653333h68.266666c10.24 0 17.066667 6.826667 17.066667 17.066667s-6.826667 17.066667-17.066667 17.066666h-27.306666l37.546666 37.546667c3.413333 3.413333 6.826667 13.653333 3.413334 17.066667 0 10.24-6.826667 13.653333-13.653334 13.653333zM716.8 102.4h-68.266667c-10.24 0-17.066667-6.826667-17.066666-17.066667s6.826667-17.066667 17.066666-17.066666h27.306667L638.293333 30.72c-3.413333-3.413333-6.826667-13.653333-3.413333-17.066667 0-10.24 6.826667-13.653333 13.653333-13.653333h68.266667c10.24 0 17.066667 6.826667 17.066667 17.066667s-6.826667 17.066667-17.066667 17.066666h-27.306667l37.546667 37.546667c3.413333 3.413333 6.826667 13.653333 3.413333 17.066667 0 10.24-6.826667 13.653333-13.653333 13.653333z"
        fill="" p-id="2558"></path>
</svg>