<svg t="1690710221746" class="icon" viewBox="0 0 1024 1024" version="1.1"
    xmlns="http://www.w3.org/2000/svg" p-id="2466" width="200" height="200">
    <path
        d="M928.9 206.1H731v-30.7c0-39.2-32.8-71.2-72.9-71.2H366.7c-40.2 0.1-72.8 31.9-72.9 71.2v30.7H95.2c-17.4 0-31.4 13.7-31.4 30.7s14 30.7 31.4 30.7h93.6v539.9c0 62 51.5 112.3 115 112.3h416.5c63.5 0 115-50.3 115-112.3V266.8h93.6c17.4 0 31.4-13.7 31.4-30.7s-14-30-31.4-30zM356 175.4c0-5.9 4.7-10.4 10.7-10.4h291.5c6 0 10.7 4.6 10.7 10.4v30.7H356v-30.7z m416.5 631.9c0 28.1-23.4 50.9-52.1 50.9H303.8c-28.8 0-52.1-22.8-52.2-50.9V266.8h520.8v540.5zM453.6 552.6l-92.8 92.8c-12 13.3-9.3 36.4 6.2 51.9 16.1 16.1 39.2 18.8 51.9 6.2l92.8-92.8 92.4 92.4c12.6 12.6 35.8 9.9 51.9-6.2s18.8-39.2 6.2-51.9l-92.4-92.4 92.1-92.1c12.6-12.6 9.9-35.8-6.2-51.9s-39.2-18.8-51.9-6.2l-92.1 92.1-92.5-92.5c-13.2-12-36.4-9.3-51.9 6.2-16.1 16.1-18.8 39.2-6.2 51.9l92.5 92.5z"
        fill="#606060" p-id="2467"></path>
</svg>