<svg t="1685608134224" class="icon" viewBox="0 0 1024 1024" version="1.1"
    xmlns="http://www.w3.org/2000/svg" p-id="3472" width="200" height="200">
    <path
        d="M848.58 425.27c-51.35-28.13-127.5 8.37-182.32 2-32.11-3.74-18.61 19.11-18.78-23.83-0.21-53.69 2.66-106.2-3.13-159.86-4-36.89 5.17-108-25.31-135.42C590.63 82.6 495.49 58.74 458.09 65c-39.69 6.66-57.19 25.66-62.41 65.76-5 38.45 3.21 80 3.33 119.41-0.4 1.17 9.73 2.31 9.45 3.55-0.4 1.79 11.75 3.28 11.75 4.41v1.15c0 11.26-9.34 22.54-9.93 33.84-5.28 5.16-15 10.33-20.41 15.33-4.16 3.84 0 10.31 4 6.22 3.08-3.18 4.92-6.49 7.94-9.73-2.34 35.67-7 71.43-9.44 107-18.95 0.64-54.68 3.47-58.58 4.08-43.66 6.82-85.86 17.46-130.36 19.32-15.59 0.65-38.07-8-52.89 3.48-27.95 21.6-11.27 64.16-7.34 92.34 5.83 41.79-2.81 99 36 126.69 46.61 33.2 135-12.47 190.4 2.55a52.26 52.26 0 0 0 11.41 2 44.79 44.79 0 0 0 0.9 12.87c7.41 39.61 4.78 85.44 3.67 125.51-1.23 44.36-13 112.88 30.77 143.24 31.14 21.58 113.92 18.78 146.49 6.45 43.08-16.3 47.06-54.8 51-96.09 4-41.74 4.32-88.85 2.46-130.67-2-44.22-3.91-51.93 45.25-61.7 55.19-11 153.85 19.42 199-23.69 38.77-37.01 41.67-183.66-11.97-213.05zM830.81 570c-31.08 89-198 6.24-256.58 67.87C523 691.87 636 918 492.74 907.85c-18.69-1.32-31.87-9.31-41.4-21.59a3.71 3.71 0 0 0 3.94-2.15l6.81-14c2.6-5.33-5.27-10-8-4.69L447 879.25c-0.05 0.1 0 0.18 0 0.27-13.46-22.36-17.75-55.42-18.74-91.4 25.41-23.93 41-57.1 61.47-85 3.36-4.59-4.26-8.92-7.6-4.44-18.38 24.58-33.13 51.95-54.13 74.18-0.12-15.93 0.16-32.13 0.3-47.9a280.91 280.91 0 0 0 21.12-23.86c11.58-14.92 19.58-32.15 31.65-46.72 2.44-2.94-1.61-7.17-4.26-4.26-12.68 13.88-21.47 30.52-33.58 44.82a211 211 0 0 1-14.89 15.13c0-37-1.73-70.17-12.63-89.95-5.15-9.34-15.94-12.42-25.77-10.49-32.79 6.44-63.1 2.55-96.66 3.75a180.52 180.52 0 0 0-21.72 2.27C293 590.76 310 562.46 329.29 536c2.93-4-3.7-7.74-6.61-3.86-20.69 27.51-38.8 56.94-62.89 81.73a4.65 4.65 0 0 0-1.35 4c-19.21 3.47-34.65 6.09-47.33-4.16-7.3-9 10.93-32.29 15.75-39.24 7.46-10.77 15.57-21.93 25.2-30.92 3.4-3.17-1.63-8.09-5.07-5.07-9.12 8-39.55 39.6-46.45 62.52a107.55 107.55 0 0 1-8.93-20.09c-4.34-12.74-7.58-54.39-6.2-64.12 5.81-41 7.25-26 40.11-34.07 48.24-11.9 135.45-28.25 181-15.73 8.15 2.24 19.61 0.33 25.21-6.66 21.56-26.91 19.14-56.73 15.44-88.63 10.54-10.46 21.32-20.66 33.39-29.5 3.33-2.44 0.18-8.06-3.29-5.63-11.08 7.77-21.24 16.64-31.19 25.75-0.87-7.54-1.71-15.15-2.2-22.89-0.6-9.62-0.79-19.27-1.16-28.91 2.37-2.43 4.65-4.93 7.19-7.21C461 293.37 474.69 285 482 271.68c2.23-4-3.81-7.58-6.19-3.62-7.82 13-22 20.76-33.58 30.36-0.14-4.73-0.47-9.45-0.57-14.17 0.44-8.45 0.77-16.87 1.06-25.27 9.64-10.36 19.45-20.56 30-30.08 1-0.93-0.46-2.34-1.5-1.5-9.81 7.91-19.09 16.4-28.22 25.05 0.3-10.34 0.44-20.62 0.35-30.79 0-1.69-0.18-3.76-0.41-6 0.37-0.4 0.8-0.79 1.16-1.2 15.08-17 30.56-34.51 43.44-53.29 1.89-2.75-0.68-6-3.55-6.19l-5.07-0.33c-3.77-0.25-4.85 5-2.23 6.9-10.69 13.33-21.84 26.45-33.47 39 1.42-26.3 3.78-52.54 7.24-78.68 25.68-21.46 75.3 0.23 102.52 14.09 88.21 44.92 31.48 235.68 41.4 315.76 1.47 11.87 6.71 18.67 17.64 23.17C675.43 501 883.8 418.36 830.81 570z"
        fill="#fff" p-id="3473"></path>
    <path
        d="M357.29 544.51c-14.89 17.75-27 37.62-42.35 55-5 5.62 3.54 13.9 8.18 8.18 14.65-18.05 26.45-38.19 41.08-56.25 3.91-4.84-2.83-11.79-6.91-6.93zM419.59 538.83c-13.59 21.12-29.36 40.72-42.7 62-3.74 6 5.7 11.46 9.43 5.51 13.31-21.22 27.45-41.92 40.73-63.15 2.95-4.73-4.46-9.02-7.46-4.36zM488.48 754c-18.08 23.61-40.91 43.47-56.18 69.2-3.76 6.33 6 12 9.85 5.76 15.58-25.48 37.32-46 55.06-69.85 3.9-5.27-4.84-10.2-8.73-5.11z"
        fill="#fff" p-id="3474"></path>
</svg>