<svg xmlns="http://www.w3.org/2000/svg" xmlns:xlink="http://www.w3.org/1999/xlink"
    xmlns:blush="http://design.blush" viewBox="200 160 1180.0000000000002 879.9999999999997"
    fill="none" overflow="visible" width="1180.0000000000002px" height="879.9999999999997px">
    <g id="Master/Close Ups/Working" blush:has-customizable-colors="true"
        blush:viewBox="216 -3.9999999999998863 1448 1208.0000000000002" blush:i="0">
        <g id="Food" blush:component="Food" blush:defaultValue="Coffee" blush:width="250"
            blush:height="250" transform="translate(707 418) scale(1 1)" blush:i="0.0"
            blush:value="Coffee" blush:viewBox="36.25 0 178.75000000000003 251.24999999999994">
            <g id="Food/Coffee" blush:viewBox="36.25 0 178.75000000000003 251.24999999999994"
                blush:i="0.0.0">
                <path id="Path 89" fill-rule="evenodd" clip-rule="evenodd"
                    d="M108.307 163C108.307 163 87.1769 127.674 117.699 118.254C94.2203 99.4138 82.4812 61.7331 134.133 61.7331C113.003 21.6974 162.307 -13.6283 195.177 5.21207C228.046 24.0524 213.959 78.2184 174.046 61.7331C188.133 85.2836 164.655 104.124 143.525 94.7037C159.959 113.544 143.525 137.095 120.046 139.45C124.742 153.58 108.307 163 108.307 163Z"
                    fill="#0089C5" fill-opacity="0.1" blush:i="0.0.0.0" />
                <path id="Combined Shape" fill-rule="evenodd" clip-rule="evenodd"
                    d="M37.8931 198.5C37.8931 184.351 46.1643 171.488 59.6449 162.141C73.1236 152.796 91.7714 147 112.393 147C133.015 147 151.662 152.796 165.141 162.141C167.55 163.812 169.793 165.594 171.852 167.477L172.219 175.716L172.858 175.691C175.148 175.61 177.268 175.622 179.225 175.728C184.141 182.605 186.893 190.339 186.893 198.5C186.893 202.524 186.224 206.445 184.956 210.21C180.356 211.549 174.529 212.258 167.349 212.341L165.893 212.35V227L166.809 226.997C169.576 226.976 172.232 226.862 174.775 226.654C171.975 229.612 168.744 232.361 165.141 234.859C151.662 244.204 133.015 250 112.393 250C91.7714 250 73.1236 244.204 59.6449 234.859C46.1643 225.512 37.8931 212.649 37.8931 198.5ZM176.262 226.521C173.237 229.848 169.693 232.92 165.711 235.68C152.045 245.156 133.193 251 112.393 251C91.5934 251 72.7411 245.156 59.0752 235.68C45.4111 226.207 36.8931 213.07 36.8931 198.5C36.8931 183.93 45.4111 170.793 59.0752 161.32C72.7411 151.844 91.5934 146 112.393 146C133.193 146 152.045 151.844 165.711 161.32C167.87 162.817 169.901 164.405 171.79 166.076L171.567 161.08C198.465 159.938 213.893 171.075 213.893 193.304C213.893 213.04 200.428 224.155 176.262 226.521ZM186.128 209.846C194.985 206.921 198.893 201.423 198.893 193.304C198.893 182.437 193.547 176.842 180.506 175.813C185.235 182.669 187.893 190.361 187.893 198.5C187.893 202.399 187.283 206.195 186.128 209.846Z"
                    fill="#21BFCA" blush:i="0.0.0.1" />
            </g>
        </g>
        <g id="Computer" blush:i="0.1">
            <path id="Monitor" fill-rule="evenodd" clip-rule="evenodd"
                d="M255.556 475.339L709.308 254.513C731.655 243.638 758.587 252.937 769.463 275.284C772.448 281.419 774 288.153 774 294.976V636.214C774 661.086 759.807 683.777 737.444 694.661L283.692 915.487C261.345 926.362 234.413 917.063 223.537 894.716C220.552 888.581 219 881.847 219 875.024V533.786C219 508.914 233.192 486.223 255.556 475.339ZM724 636.214V302.969L277.436 520.298C272.275 522.81 269 528.046 269 533.786V867.03L715.564 649.702C720.622 647.241 723.868 642.162 723.996 636.558L724 636.214Z"
                fill="#E4EDF1" blush:i="0.1.0" />
            <path id="Path"
                d="M746.983 286.224C748.31 288.951 749 291.944 749 294.976V636.214C749 651.52 740.266 665.484 726.504 672.181L272.752 893.007C262.82 897.841 250.85 893.708 246.017 883.776C244.69 881.049 244 878.056 244 875.024V533.785C244 518.48 252.734 504.516 266.496 497.819L720.248 276.993C730.18 272.159 742.15 276.292 746.983 286.224Z"
                fill="#6E8B9A" blush:i="0.1.1" />
            <path id="Path_2" d="M709 636.214V326.951L284 533.785L284 843.047L709 636.214Z"
                fill="#001D2D" blush:i="0.1.2" />
            <path id="Keyboard" fill-rule="evenodd" clip-rule="evenodd"
                d="M424 897.21C424 889.529 428.398 882.527 435.318 879.193L708.45 747.57C713.195 745.283 718.651 744.96 723.633 746.673L827.994 782.541C844.893 788.349 846.273 811.715 830.176 819.472L587.241 936.543C583.908 938.15 580.194 938.8 576.514 938.422L441.956 924.595C431.755 923.547 424 914.954 424 904.7V897.21Z"
                fill="#E4EDF1" blush:i="0.1.3" />
            <g id="code" blush:i="0.1.4">
                <path id="Path_3" fill-rule="evenodd" clip-rule="evenodd"
                    d="M673.387 411.987L642.034 427.29C637.071 429.712 631.084 427.653 628.661 422.689C626.239 417.726 628.298 411.739 633.262 409.316L664.614 394.013C669.577 391.591 675.564 393.651 677.987 398.614C680.409 403.577 678.35 409.564 673.387 411.987ZM540.485 476.855L606.088 444.835C611.051 442.413 613.11 436.425 610.688 431.462C608.265 426.499 602.278 424.439 597.315 426.862L531.712 458.882C526.749 461.305 524.69 467.292 527.112 472.255C529.535 477.218 535.522 479.278 540.485 476.855ZM504.538 494.401L438.936 526.421C433.973 528.844 427.985 526.784 425.563 521.821C423.14 516.858 425.2 510.87 430.163 508.448L495.766 476.427C500.729 474.005 506.716 476.065 509.139 481.028C511.561 485.991 509.502 491.978 504.538 494.401ZM402.989 543.966L337.387 575.987C332.423 578.409 326.436 576.35 324.014 571.386C321.591 566.423 323.651 560.436 328.614 558.013L394.217 525.993C399.18 523.571 405.167 525.63 407.59 530.593C410.012 535.557 407.952 541.544 402.989 543.966Z"
                    fill="white" blush:i="0.1.4.0" />
                <path id="Path Copy" fill-rule="evenodd" clip-rule="evenodd"
                    d="M469.655 566.103L421.999 589.295C417.033 591.712 411.048 589.645 408.632 584.68C406.215 579.714 408.281 573.729 413.247 571.312L460.903 548.119C465.869 545.702 471.854 547.769 474.271 552.735C476.688 557.701 474.621 563.686 469.655 566.103ZM386.032 606.799L338.376 629.992C333.41 632.409 327.425 630.342 325.009 625.376C322.592 620.41 324.658 614.425 329.624 612.008L377.28 588.816C382.246 586.399 388.231 588.465 390.648 593.431C393.065 598.397 390.998 604.382 386.032 606.799Z"
                    fill="white" blush:i="0.1.4.1" />
                <path id="Path Copy_2"
                    d="M501.392 549.984L546.392 527.984C551.354 525.558 553.41 519.57 550.984 514.608C548.558 509.646 542.57 507.591 537.608 510.016L492.608 532.016C487.647 534.442 485.591 540.431 488.016 545.392C490.442 550.354 496.431 552.41 501.392 549.984Z"
                    fill="#FF8282" blush:i="0.1.4.2" />
                <path id="Path Copy_3" fill-rule="evenodd" clip-rule="evenodd"
                    d="M673.361 465.999L660.054 472.447C655.084 474.855 649.102 472.778 646.694 467.808C644.286 462.838 646.363 456.857 651.333 454.449L664.64 448.001C669.61 445.593 675.591 447.669 678 452.64C680.408 457.61 678.331 463.591 673.361 465.999ZM624.057 489.889L576.361 512.999C571.391 515.408 565.409 513.331 563.001 508.361C560.593 503.39 562.67 497.409 567.64 495.001L615.336 471.89C620.306 469.482 626.287 471.559 628.696 476.529C631.104 481.499 629.027 487.481 624.057 489.889Z"
                    fill="#A37BFF" blush:i="0.1.4.3" />
                <path id="Path Copy 2" fill-rule="evenodd" clip-rule="evenodd"
                    d="M441.367 633.996L422.031 643.383C417.062 645.795 411.079 643.722 408.668 638.754C406.256 633.785 408.328 627.803 413.297 625.391L432.633 616.004C437.602 613.592 443.585 615.665 445.996 620.633C448.408 625.601 446.336 631.584 441.367 633.996ZM386.046 660.851L338.367 683.996C333.399 686.408 327.416 684.335 325.004 679.367C322.592 674.399 324.665 668.416 329.633 666.004L377.312 642.859C382.281 640.447 388.264 642.519 390.676 647.488C393.087 652.456 391.015 658.439 386.046 660.851Z"
                    fill="#26A9FF" blush:i="0.1.4.4" />
                <path id="Path Copy 2_2"
                    d="M480.409 615.976L527.98 592.608C532.937 590.173 534.981 584.18 532.546 579.223C530.111 574.266 524.119 572.222 519.162 574.657L471.591 598.024C466.634 600.46 464.59 606.452 467.025 611.409C469.46 616.366 475.452 618.411 480.409 615.976Z"
                    fill="#FF8282" blush:i="0.1.4.5" />
                <path id="Path Copy 3" fill-rule="evenodd" clip-rule="evenodd"
                    d="M660.008 580.517L576.432 621.31C571.469 623.733 565.481 621.673 563.059 616.71C560.636 611.746 562.696 605.759 567.659 603.337L651.235 562.544C656.198 560.121 662.185 562.181 664.608 567.144C667.03 572.107 664.971 578.094 660.008 580.517ZM456.909 679.648L540.485 638.855C545.448 636.433 547.508 630.446 545.085 625.482C542.663 620.519 536.676 618.46 531.712 620.882L448.136 661.675C443.173 664.098 441.114 670.085 443.536 675.048C445.959 680.011 451.946 682.071 456.909 679.648ZM337.387 737.987L420.963 697.194C425.926 694.771 427.985 688.784 425.563 683.821C423.14 678.858 417.153 676.798 412.19 679.22L328.614 720.013C323.651 722.436 321.591 728.423 324.014 733.386C326.436 738.35 332.423 740.409 337.387 737.987Z"
                    fill="white" blush:i="0.1.4.6" />
                <path id="Path Copy 4" fill-rule="evenodd" clip-rule="evenodd"
                    d="M552.274 687.396L504.619 710.591C499.653 713.008 493.668 710.941 491.251 705.975C488.834 701.01 490.9 695.025 495.866 692.608L543.521 669.413C548.487 666.996 554.472 669.062 556.889 674.028C559.306 678.994 557.24 684.979 552.274 687.396ZM420.998 751.291L468.653 728.096C473.619 725.679 475.685 719.694 473.268 714.728C470.851 709.762 464.866 707.696 459.9 710.113L412.245 733.308C407.279 735.725 405.213 741.71 407.63 746.676C410.047 751.642 416.032 753.708 420.998 751.291ZM337.377 791.992L385.032 768.797C389.998 766.38 392.064 760.395 389.647 755.429C387.23 750.463 381.245 748.397 376.279 750.814L328.624 774.008C323.658 776.426 321.592 782.411 324.009 787.376C326.426 792.342 332.411 794.409 337.377 791.992Z"
                    fill="#26A9FF" blush:i="0.1.4.7" />
            </g>
        </g>
        <g id="Plants" blush:component="Plants" blush:defaultValue="Fern" blush:width="140"
            blush:height="140"
            transform="translate(327 870) scale(0.4666666666666667 0.4666666666666667)"
            blush:i="0.2" blush:value="Fern"
            blush:viewBox="25.50000000000003 0 246.00000000000006 299.99999999999994">
            <g id="Plants/Fern"
                blush:viewBox="25.50000000000003 0 246.00000000000006 299.99999999999994"
                blush:i="0.2.0">
                <g id="Group" blush:i="0.2.0.0">
                    <path id="Star Copy 2"
                        d="M188 158.388V158.388C182.715 169.416 166.323 166.819 164.704 154.698V154.698V154.698C156.269 163.553 141.482 156.018 143.688 143.99V143.99V143.99C132.93 149.805 121.195 138.07 127.01 127.312V127.312V127.312C114.982 129.518 107.447 114.731 116.302 106.296V106.296V106.296C104.181 104.677 101.584 88.2855 112.612 83V83V83C101.584 77.7145 104.181 61.3229 116.302 59.7039V59.7039V59.7039C107.447 51.2693 114.982 36.4822 127.01 38.6882V38.6882V38.6882C121.195 27.9302 132.93 16.1951 143.688 22.0101V22.0101V22.0101C141.482 9.98163 156.269 2.44722 164.704 11.302V11.302V11.302C166.323 -0.81938 182.715 -3.41556 188 7.6123V7.6123V7.6123C193.285 -3.41556 209.677 -0.81938 211.296 11.302V11.302V11.302C219.731 2.44722 234.518 9.98162 232.312 22.0101V22.0101V22.0101C243.07 16.1951 254.805 27.9302 248.99 38.6882V38.6882V38.6882C261.018 36.4822 268.553 51.2693 259.698 59.7039V59.7039V59.7039C271.819 61.3229 274.416 77.7145 263.388 83V83V83C274.416 88.2855 271.819 104.677 259.698 106.296V106.296V106.296C268.553 114.731 261.018 129.518 248.99 127.312V127.312V127.312C254.805 138.07 243.07 149.805 232.312 143.99V143.99V143.99C234.518 156.018 219.731 163.553 211.296 154.698V154.698V154.698C209.677 166.819 193.285 169.416 188 158.388V158.388Z"
                        fill="#42AB99" blush:i="0.2.0.0.0" />
                    <path id="Star Copy"
                        d="M94 196.162V196.162C89.6418 205.255 76.1259 203.114 74.791 193.119V193.119V193.119C67.8361 200.421 55.6433 194.208 57.4622 184.29V184.29V184.29C48.5916 189.085 38.9152 179.408 43.7101 170.538V170.538V170.538C33.7919 172.357 27.5793 160.164 34.8806 153.209V153.209V153.209C24.8858 151.874 22.7451 138.358 31.8382 134V134V134C22.7451 129.642 24.8858 116.126 34.8806 114.791V114.791V114.791C27.5793 107.836 33.7919 95.6433 43.7101 97.4622V97.4622V97.4622C38.9152 88.5915 48.5915 78.9152 57.4622 83.7101V83.7101V83.7101C55.6433 73.7919 67.8361 67.5793 74.791 74.8806V74.8806V74.8806C76.1259 64.8858 89.6418 62.7451 94 71.8382V71.8382V71.8382C98.3582 62.7451 111.874 64.8858 113.209 74.8806V74.8806V74.8806C120.164 67.5793 132.357 73.7919 130.538 83.7101V83.7101V83.7101C139.408 78.9152 149.085 88.5916 144.29 97.4622V97.4622V97.4622C154.208 95.6433 160.421 107.836 153.119 114.791V114.791V114.791C163.114 116.126 165.255 129.642 156.162 134V134V134C165.255 138.358 163.114 151.874 153.119 153.209V153.209V153.209C160.421 160.164 154.208 172.357 144.29 170.538V170.538V170.538C149.085 179.408 139.408 189.085 130.538 184.29V184.29V184.29C132.357 194.208 120.164 200.421 113.209 193.119V193.119V193.119C111.874 203.114 98.3582 205.255 94 196.162V196.162Z"
                        fill="#59BCAB" blush:i="0.2.0.0.1" />
                    <path id="Star"
                        d="M150 272.388V272.388C144.715 283.416 128.323 280.819 126.704 268.698V268.698V268.698C118.269 277.553 103.482 270.018 105.688 257.99V257.99V257.99C94.9302 263.805 83.1951 252.07 89.0101 241.312V241.312V241.312C76.9816 243.518 69.4472 228.731 78.302 220.296V220.296V220.296C66.1806 218.677 63.5844 202.285 74.6123 197V197V197C63.5844 191.715 66.1806 175.323 78.302 173.704V173.704V173.704C69.4472 165.269 76.9816 150.482 89.0101 152.688V152.688V152.688C83.1951 141.93 94.9302 130.195 105.688 136.01V136.01V136.01C103.482 123.982 118.269 116.447 126.704 125.302V125.302V125.302C128.323 113.181 144.715 110.584 150 121.612V121.612V121.612C155.285 110.584 171.677 113.181 173.296 125.302V125.302V125.302C181.731 116.447 196.518 123.982 194.312 136.01V136.01V136.01C205.07 130.195 216.805 141.93 210.99 152.688V152.688V152.688C223.018 150.482 230.553 165.269 221.698 173.704V173.704V173.704C233.819 175.323 236.416 191.715 225.388 197V197V197C236.416 202.285 233.819 218.677 221.698 220.296V220.296V220.296C230.553 228.731 223.018 243.518 210.99 241.312V241.312V241.312C216.805 252.07 205.07 263.805 194.312 257.99V257.99V257.99C196.518 270.018 181.731 277.553 173.296 268.698V268.698V268.698C171.677 280.819 155.285 283.416 150 272.388V272.388Z"
                        fill="#82D1C4" blush:i="0.2.0.0.2" />
                    <path id="Rectangle" fill-rule="evenodd" clip-rule="evenodd"
                        d="M80 240H220V254.894C220 269.307 214.037 283.077 203.526 292.939V292.939C198.691 297.475 192.31 300 185.68 300H114.32C107.69 300 101.309 297.475 96.4735 292.939V292.939C85.9627 283.077 80 269.307 80 254.894V240Z"
                        fill="#E4EDF1" blush:i="0.2.0.0.3" />
                    <path id="Combined Shape" fill-rule="evenodd" clip-rule="evenodd"
                        d="M199 253C199 250.791 197.209 249 195 249H176L175.8 249.005C173.684 249.109 172 250.858 172 253C172 255.209 173.791 257 176 257H195L195.2 256.995C197.316 256.891 199 255.142 199 253ZM203 267C203 264.791 201.209 263 199 263H190L189.8 263.005C187.684 263.109 186 264.858 186 267C186 269.209 187.791 271 190 271H199L199.2 270.995C201.316 270.891 203 269.142 203 267ZM176 269C178.209 269 180 270.791 180 273C180 275.142 178.316 276.891 176.2 276.995L176 277H163C160.791 277 159 275.209 159 273C159 270.858 160.684 269.109 162.8 269.005L163 269H176ZM187 287C187 284.791 185.209 283 183 283H170L169.8 283.005C167.684 283.109 166 284.858 166 287C166 289.209 167.791 291 170 291H183L183.2 290.995C185.316 290.891 187 289.142 187 287Z"
                        fill="#B9CCD4" blush:i="0.2.0.0.4" />
                </g>
            </g>
        </g>
        <g id="Master/Character/Bust" blush:has-customizable-colors="true"
            blush:component="Master/Character/Bust" blush:width="1080" blush:height="1200"
            transform="matrix(-1 0 0 1 1664 0) scale(1 1)" blush:i="0.3" blush:value="Bust"
            blush:viewBox="288 162 504.0000000000002 876.0000000000001">
            <g id="Master/Character/Bust" blush:has-customizable-colors="true"
                blush:viewBox="288 162 504.0000000000002 876.0000000000001" blush:i="0.3.0">
                <g id="Bodies" blush:component="Bodies" blush:defaultValue="Purple A"
                    blush:width="500" blush:height="500" transform="translate(290 534) scale(1 1)"
                    blush:i="0.3.0.0" blush:value="Green A"
                    blush:viewBox="52.50000000000006 35 397.50000000000006 432.5000000000001">
                    <g id="Bodies/Green A"
                        blush:viewBox="52.50000000000006 35 397.50000000000006 432.5000000000001"
                        blush:i="0.3.0.0.0">
                        <g id="Patterns" blush:i="0.3.0.0.0.0">
                            <path id="Mask" fill-rule="evenodd" clip-rule="evenodd"
                                d="M87.3758 98.6254C55.2838 135.268 40.9068 187.81 65.1858 229.117C83.7298 260.665 119.85 280.63 156.81 292.928C212.938 311.603 276.392 315.647 332.303 296.443C388.213 277.238 434.854 232.727 445.139 179.222C453.22 137.183 446.599 85.9854 387.998 55.3514C342.94 31.7974 163.736 11.4374 87.3758 98.6254"
                                fill="#21BFCA" blush:i="0.3.0.0.0.0.0" />
                            <mask id="mask0_203_4160310b63c96-785d-4b7d-835f-5232ed6656bc"
                                style="mask-type:alpha" maskUnits="userSpaceOnUse" x="53" y="35"
                                width="395" height="275" blush:i="0.3.0.0.0.0.1" fill="#ffffff">
                                <path id="Mask_2" fill-rule="evenodd" clip-rule="evenodd"
                                    d="M87.3758 98.6254C55.2838 135.268 40.9068 187.81 65.1858 229.117C83.7298 260.665 119.85 280.63 156.81 292.928C212.938 311.603 276.392 315.647 332.303 296.443C388.213 277.238 434.854 232.727 445.139 179.222C453.22 137.183 446.599 85.9854 387.998 55.3514C342.94 31.7974 163.736 11.4374 87.3758 98.6254"
                                    fill="#ffffff" blush:i="0.3.0.0.0.0.1.0" />
                            </mask>
                            <g mask="url(#mask0_203_4160310b63c96-785d-4b7d-835f-5232ed6656bc)"
                                blush:i="0.3.0.0.0.0.2">
                                <g id="Patterns_2" blush:i="0.3.0.0.0.0.2.0">
                                    <g id="Group" blush:i="0.3.0.0.0.0.2.0.0">
                                        <path id="Path 23" fill-rule="evenodd" clip-rule="evenodd"
                                            d="M371.634 107.342L372.933 106.95C384.424 103.562 393.874 104.658 402.999 111.08C407.5 114.248 411.929 118.739 416.4 124.7C428.158 140.376 427.443 162.249 415.414 180.03C402.715 198.803 380.2 209.31 353.947 206.497C327.937 203.71 312.948 189.778 311.252 170.419C309.701 152.713 319.935 133.964 336.756 124.564C357.449 113 363.532 109.853 371.634 107.342ZM415.6 125.3C411.189 119.418 406.832 115.001 402.423 111.898C393.564 105.662 384.429 104.603 373.215 107.909C365.388 110.217 360.089 112.746 343.289 122.068L337.244 125.436C320.762 134.647 310.732 153.023 312.248 170.331C313.901 189.194 328.5 202.765 354.054 205.503C379.938 208.276 402.094 197.937 414.586 179.47C426.387 162.025 427.087 140.615 415.6 125.3Z"
                                            fill="white" blush:i="0.3.0.0.0.0.2.0.0.0" />
                                        <path id="Path 23_2" fill-rule="evenodd" clip-rule="evenodd"
                                            d="M348.681 86.7976C359.439 81.5461 368.326 77.9219 376.527 75.5859C395.995 70.0401 411.974 71.8307 427.419 82.3337C435.052 87.5252 442.57 94.8901 450.164 104.673C470.099 130.355 468.887 166.206 448.476 195.359C426.92 226.148 388.704 243.38 344.128 238.765C299.994 234.196 274.602 211.39 271.728 179.691C269.098 150.679 286.459 119.945 314.99 104.54C334.616 93.9431 338.677 91.7585 344.462 88.8787L348.681 86.7976ZM449.374 105.286C441.841 95.5812 434.397 88.2887 426.856 83.1606C411.673 72.8351 395.999 71.0787 376.801 76.5476C368.439 78.9297 359.337 82.67 348.222 88.1364C343.42 90.4976 340.914 91.7523 334.927 94.9429L315.466 105.42C287.279 120.639 270.131 150.996 272.724 179.601C275.552 210.797 300.55 233.248 344.231 237.77C388.448 242.348 426.31 225.276 447.657 194.786C467.828 165.974 469.025 130.602 449.374 105.286Z"
                                            fill="white" blush:i="0.3.0.0.0.0.2.0.0.1" />
                                        <path id="Path 23_3" fill-rule="evenodd" clip-rule="evenodd"
                                            d="M369.81 128.854L370.823 128.562C377.601 126.667 383.192 127.282 388.585 130.881C391.24 132.653 393.849 135.161 396.479 138.487C403.429 147.274 403.007 159.531 395.909 169.48C388.43 179.964 375.179 185.828 359.74 184.259C344.422 182.703 335.562 174.894 334.559 164.032C333.642 154.107 339.682 143.613 349.605 138.355C361.521 132.041 365.171 130.242 369.81 128.854ZM395.695 139.107C393.126 135.859 390.591 133.422 388.03 131.713C382.895 128.286 377.605 127.704 371.092 129.525L370.89 129.582C366.601 130.796 363.523 132.172 354.671 136.813L350.073 139.239C340.498 144.313 334.676 154.428 335.555 163.94C336.511 174.295 344.973 181.754 359.841 183.264C374.925 184.797 387.826 179.088 395.095 168.9C401.947 159.295 402.353 147.525 395.695 139.107Z"
                                            fill="white" blush:i="0.3.0.0.0.0.2.0.0.2" />
                                        <path id="Path 23_4" fill-rule="evenodd" clip-rule="evenodd"
                                            d="M368.991 144.08L369.491 143.966C373.224 143.146 376.311 143.413 379.295 144.978C380.764 145.748 382.206 146.838 383.658 148.28C387.571 152.167 387.332 157.619 383.357 161.997C379.225 166.547 371.94 169.08 363.468 168.404C355.023 167.73 350.087 164.312 349.52 159.488C349.002 155.078 352.38 150.466 357.887 148.173C364.445 145.443 366.422 144.679 368.991 144.08ZM382.954 148.99C381.569 147.615 380.206 146.585 378.83 145.863C376.072 144.417 373.223 144.171 369.706 144.943C367.394 145.451 365.772 146.007 361.218 147.877L358.272 149.097C353.144 151.231 350.052 155.452 350.513 159.372C351.015 163.642 355.528 166.767 363.548 167.407C371.725 168.06 378.704 165.633 382.617 161.324C386.251 157.322 386.463 152.476 382.954 148.99Z"
                                            fill="white" blush:i="0.3.0.0.0.0.2.0.0.3" />
                                        <path id="Path 24" fill-rule="evenodd" clip-rule="evenodd"
                                            d="M171.877 6.66685C210.625 -36.6871 262.904 -72.4906 302.902 -80.4902C342.108 -88.3315 370.017 -78.2215 384.301 -54.886C396.522 -34.9218 396.988 -6.91214 386.451 15.215C373.059 43.3383 336.652 72.7317 277.16 103.474C219.701 122.849 174.557 122.849 141.745 103.43C118.532 89.6916 132.481 50.7465 171.877 6.66685ZM385.549 14.7851C395.945 -7.048 395.485 -34.7004 383.449 -54.3639C369.398 -77.3179 341.916 -87.2732 303.098 -79.5097C263.346 -71.5591 211.239 -35.8737 172.623 7.33324C133.618 50.9752 119.881 89.3279 142.255 102.57C174.777 121.817 219.632 121.817 276.77 102.556C336.015 71.9351 372.274 42.6618 385.549 14.7851Z"
                                            fill="white" blush:i="0.3.0.0.0.0.2.0.0.4" />
                                        <path id="Path 24_2" fill-rule="evenodd" clip-rule="evenodd"
                                            d="M196.022 9.18493C224.383 -23.766 262.648 -50.9781 291.943 -57.0619C320.68 -63.0299 341.157 -55.3273 351.635 -37.5519C360.594 -22.3547 360.935 -1.04265 353.213 15.7962C343.404 37.1876 316.752 59.5305 273.19 82.9027C231.122 97.633 198.055 97.633 174.011 82.8568C156.933 72.3617 167.158 42.7192 196.022 9.18493ZM352.304 15.3793C359.895 -1.17317 359.559 -22.1409 350.774 -37.0441C340.525 -54.4293 320.484 -61.968 292.146 -56.0828C263.103 -50.0512 225.01 -22.9617 196.779 9.83728C168.292 42.9346 158.264 72.006 174.534 82.0048C198.282 96.599 231.049 96.599 272.789 81.9902C316.104 58.7435 342.608 36.5244 352.304 15.3793Z"
                                            fill="white" blush:i="0.3.0.0.0.0.2.0.0.5" />
                                        <path id="Path 24_3" fill-rule="evenodd" clip-rule="evenodd"
                                            d="M218.485 11.5518C236.972 -9.50223 261.914 -26.8888 281.029 -30.7799C299.804 -34.602 313.21 -29.6593 320.073 -18.2475C325.938 -8.49437 326.162 5.17181 321.109 15.9715C314.83 29.3933 298.015 43.376 270.6 57.9932L268.908 58.8889C241.477 68.304 219.9 68.304 204.196 58.8443C192.928 52.0568 199.624 33.0313 218.485 11.5518ZM320.203 15.5477C325.12 5.03849 324.902 -8.27654 319.216 -17.7322C312.584 -28.7584 299.61 -33.542 281.228 -29.8C262.362 -25.9595 237.592 -8.69308 219.236 12.2117C200.759 33.2537 194.269 51.6969 204.712 57.9877C220.123 67.271 241.406 67.271 268.513 57.9735C296.682 43.1549 313.911 28.997 320.203 15.5477Z"
                                            fill="white" blush:i="0.3.0.0.0.0.2.0.0.6" />
                                        <path id="Path 24_4" fill-rule="evenodd" clip-rule="evenodd"
                                            d="M242.971 18.0942C250.697 7.40952 261.122 -1.41453 269.16 -3.40144C277.114 -5.36762 282.838 -2.80458 285.75 3.07548C288.218 8.05825 288.312 15.0182 286.19 20.5258C283.502 27.5021 276.234 34.7542 264.321 42.3557C252.816 47.1507 243.722 47.1507 237.088 42.2977C232.349 38.8309 234.926 29.4858 242.439 18.839L242.971 18.0942ZM285.257 20.1663C287.282 14.9097 287.192 8.23993 284.854 3.51929C282.153 -1.93531 276.904 -4.28557 269.4 -2.43066C261.638 -0.511944 251.382 8.16912 243.781 18.6801C236.17 29.2063 233.496 38.4314 237.679 41.4906C243.988 46.1057 252.724 46.1057 263.86 41.4728C275.533 34.0157 282.662 26.9024 285.257 20.1663Z"
                                            fill="white" blush:i="0.3.0.0.0.0.2.0.0.7" />
                                        <path id="Path 25" fill-rule="evenodd" clip-rule="evenodd"
                                            d="M407.752 3.16223C403.675 -51.3289 432.969 -102.574 483.834 -120.472C509.464 -129.49 532.819 -121.847 551.408 -100.532C568.157 -81.3269 579.98 -51.9305 584.246 -20.1917C588.561 11.907 584.741 43.21 573.039 65.994C559.913 91.5497 537.802 105.156 507.973 103.499C477.832 101.825 453.187 90.3116 435.537 70.883C419.325 53.0382 409.693 29.1139 407.752 3.16223ZM583.255 -20.0585C579.013 -51.6154 567.264 -80.83 550.655 -99.8746C532.321 -120.897 509.386 -128.402 484.166 -119.528C433.752 -101.79 404.704 -50.9751 408.749 3.08763C410.674 28.8246 420.221 52.5373 436.277 70.2106C453.749 89.4428 478.147 100.841 508.028 102.501C537.45 104.135 559.199 90.7519 572.149 65.5371C583.749 42.9521 587.544 11.8515 583.255 -20.0585Z"
                                            fill="white" blush:i="0.3.0.0.0.0.2.0.0.8" />
                                        <path id="Path 25_2" fill-rule="evenodd" clip-rule="evenodd"
                                            d="M439.408 -1.26101C436.787 -37.8419 455.631 -72.2515 488.366 -84.2739C504.901 -90.3465 519.976 -85.1971 531.956 -70.8589C542.73 -57.9634 550.331 -38.2367 553.073 -16.9408C555.847 4.59648 553.391 25.6024 545.863 40.9003C537.408 58.0847 523.146 67.2451 503.917 66.13C466.251 63.9458 442.093 36.1883 439.408 -1.26101ZM552.081 -16.813C549.361 -37.9325 541.829 -57.4818 531.188 -70.2178C519.464 -84.2504 504.821 -89.252 488.711 -83.3352C456.424 -71.4776 437.814 -37.4951 440.406 -1.3325C443.056 35.6449 466.846 62.9786 503.975 65.1317C522.785 66.2225 536.681 57.2966 544.966 40.4588C552.398 25.3544 554.831 4.54277 552.081 -16.813Z"
                                            fill="white" blush:i="0.3.0.0.0.0.2.0.0.9" />
                                        <path id="Path 26" fill-rule="evenodd" clip-rule="evenodd"
                                            d="M381.543 61.1237C377.553 57.5775 377.315 52.9372 381.613 47.6834C390.584 36.719 407.252 37.0978 410.479 47.8563C413.579 58.1904 406.312 67.5337 395.95 66.4975C390.309 65.9334 384.752 63.9762 381.543 61.1237ZM396.05 65.5025C405.688 66.4663 412.421 57.8097 409.521 48.1437C406.557 38.2615 390.905 37.9058 382.387 48.3166C378.421 53.1645 378.628 57.1948 382.207 60.3763C385.236 63.0682 390.6 64.9575 396.05 65.5025Z"
                                            fill="white" blush:i="0.3.0.0.0.0.2.0.0.10" />
                                        <path id="Path 27" fill-rule="evenodd" clip-rule="evenodd"
                                            d="M29.2505 241.735C30.3481 204.143 53.1191 172.464 94.8219 156.533C147.615 136.365 186.355 129.591 214.658 139.026C249.109 150.509 265.786 186.229 262.5 251.025C259.289 314.314 232.778 349.427 189.851 358.24C154.98 365.399 110.921 353.841 76.7261 331.418C46.5072 311.602 28.2307 276.666 29.2505 241.735ZM261.501 250.975C264.767 186.579 248.291 151.291 214.342 139.974C186.325 130.635 147.769 137.377 95.1787 157.467C53.8512 173.255 31.3358 204.578 30.2501 241.765C29.2404 276.348 47.3456 310.956 77.2745 330.582C111.265 352.871 155.065 364.36 189.65 357.26C232.103 348.545 258.313 313.832 261.501 250.975Z"
                                            fill="white" blush:i="0.3.0.0.0.0.2.0.0.11" />
                                        <path id="Path 27_2" fill-rule="evenodd" clip-rule="evenodd"
                                            d="M59.5872 243.268C60.4 215.416 77.2648 191.944 108.139 180.144C147.188 165.22 175.848 160.207 196.806 167.196C222.336 175.71 234.69 202.18 232.258 250.148C229.882 297.005 210.246 323.023 178.454 329.552C152.642 334.854 120.041 326.298 94.7383 309.699C72.3637 295.021 58.832 269.144 59.5872 243.268ZM231.259 250.097C233.671 202.53 221.518 176.491 196.49 168.145C175.817 161.251 147.342 166.232 108.496 181.078C77.9971 192.735 61.3877 215.851 60.5867 243.297C59.8417 268.825 73.2022 294.375 95.2868 308.863C120.384 325.328 152.727 333.815 178.253 328.573C209.571 322.14 228.905 296.523 231.259 250.097Z"
                                            fill="white" blush:i="0.3.0.0.0.0.2.0.0.12" />
                                        <path id="Path 27_3" fill-rule="evenodd" clip-rule="evenodd"
                                            d="M79.5802 244.264C80.2054 222.742 93.1772 204.602 116.915 195.487C146.907 183.97 168.923 180.1 185.041 185.501C204.692 192.085 214.196 212.545 212.327 249.578C210.501 285.758 195.398 305.865 170.944 310.912C151.1 315.007 126.05 308.401 106.608 295.586C89.4037 284.246 78.9995 264.256 79.5802 244.264ZM211.328 249.527C213.177 212.895 203.874 192.865 184.724 186.449C168.893 181.145 147.062 184.982 117.273 196.42C93.9108 205.392 81.1932 223.176 80.5798 244.293C80.0092 263.938 90.2432 283.602 107.159 294.752C126.396 307.431 151.186 313.968 170.742 309.932C194.721 304.984 209.524 285.276 211.328 249.527Z"
                                            fill="white" blush:i="0.3.0.0.0.0.2.0.0.13" />
                                        <path id="Path 27_4" fill-rule="evenodd" clip-rule="evenodd"
                                            d="M116.567 246.15C116.845 236.62 122.617 228.584 133.152 224.556C146.387 219.496 156.113 217.794 163.275 220.183C172.05 223.11 176.283 232.183 175.456 248.498C174.647 264.448 167.926 273.358 157.048 275.593C148.249 277.401 137.17 274.492 128.57 268.848C120.929 263.833 116.309 254.995 116.567 246.15ZM174.457 248.447C175.264 232.533 171.232 223.892 162.959 221.132C156.082 218.838 146.542 220.507 133.51 225.49C123.349 229.375 117.833 237.055 117.567 246.18C117.319 254.676 121.768 263.187 129.119 268.012C137.514 273.521 148.334 276.362 156.847 274.613C167.251 272.475 173.671 263.966 174.457 248.447Z"
                                            fill="white" blush:i="0.3.0.0.0.0.2.0.0.14" />
                                        <path id="Path 27_5" fill-rule="evenodd" clip-rule="evenodd"
                                            d="M135.167 257.001C124.333 252.091 124.804 240.951 138.031 237.459C146.256 235.288 152.3 234.557 156.758 235.584C162.299 236.861 165.018 240.885 164.494 248.029C163.98 255.025 159.711 258.933 152.887 259.901C147.414 260.677 140.523 259.428 135.167 257.001ZM163.496 247.956C163.986 241.288 161.576 237.72 156.534 236.559C152.279 235.579 146.364 236.294 138.286 238.426C125.996 241.671 125.578 251.558 135.58 256.09C140.773 258.443 147.475 259.658 152.747 258.91C159.133 258.004 163.02 254.447 163.496 247.956Z"
                                            fill="white" blush:i="0.3.0.0.0.0.2.0.0.15" />
                                        <path id="Path 28" fill-rule="evenodd" clip-rule="evenodd"
                                            d="M272.263 308.515C277.004 287.583 287.751 271.853 304.861 262.823C324.165 252.636 351.129 251.183 386.116 259.514C453.078 275.457 495.905 306.519 513.83 345.667C528.519 377.749 524.008 412.699 505.354 431.354C488.583 448.124 443.86 460.231 397.884 461C347.267 461.846 306.897 449.211 292.567 424.249C274.421 392.641 264.358 343.406 272.263 308.515ZM512.921 346.083C495.134 307.237 452.565 276.363 385.884 260.486C351.114 252.208 324.391 253.647 305.327 263.708C288.495 272.591 277.919 288.072 273.238 308.735C265.394 343.362 275.406 392.347 293.434 423.751C307.53 448.306 347.58 460.84 397.867 460C443.608 459.236 488.103 447.19 504.647 430.646C522.991 412.302 527.444 377.802 512.921 346.083Z"
                                            fill="white" blush:i="0.3.0.0.0.0.2.0.0.16" />
                                        <path id="Path 28_2" fill-rule="evenodd" clip-rule="evenodd"
                                            d="M317.146 401.079C303.296 380.466 295.617 348.366 301.655 325.594C309.487 296.055 337.816 283.282 388.492 293.591C439.519 303.971 472.167 324.202 485.845 349.726C497.078 370.685 493.625 393.539 479.351 405.735C466.553 416.67 432.478 424.551 397.444 425.051C358.862 425.602 328.096 417.376 317.146 401.079ZM484.964 350.198C471.443 324.969 439.051 304.896 388.293 294.571C338.089 284.358 310.301 296.887 302.621 325.851C296.665 348.317 304.275 380.13 317.976 400.521C328.677 416.447 359.161 424.598 397.43 424.052C432.25 423.554 466.126 415.719 478.701 404.975C492.606 393.095 495.981 370.756 484.964 350.198Z"
                                            fill="white" blush:i="0.3.0.0.0.0.2.0.0.17" />
                                        <path id="Oval" fill-rule="evenodd" clip-rule="evenodd"
                                            d="M430.5 247C430.5 239.722 436.342 234.5 444 234.5C451.658 234.5 457.5 239.722 457.5 247C457.5 254.104 451.918 258.5 444 258.5C436.082 258.5 430.5 254.104 430.5 247ZM456.5 247C456.5 240.3 451.129 235.5 444 235.5C436.871 235.5 431.5 240.3 431.5 247C431.5 253.492 436.589 257.5 444 257.5C451.411 257.5 456.5 253.492 456.5 247Z"
                                            fill="white" blush:i="0.3.0.0.0.0.2.0.0.18" />
                                        <path id="Oval_2" fill-rule="evenodd" clip-rule="evenodd"
                                            d="M275.5 248C275.5 241.963 278.182 237.5 283 237.5C287.988 237.5 292.5 243.397 292.5 249C292.5 254.076 288.455 257.5 283 257.5C278.087 257.5 275.5 253.766 275.5 248ZM291.5 249C291.5 243.899 287.369 238.5 283 238.5C278.869 238.5 276.5 242.444 276.5 248C276.5 253.276 278.734 256.5 283 256.5C287.937 256.5 291.5 253.483 291.5 249Z"
                                            fill="white" blush:i="0.3.0.0.0.0.2.0.0.19" />
                                        <path id="Path 34" fill-rule="evenodd" clip-rule="evenodd"
                                            d="M28.5801 148.576C-2.42917 63.1657 3.24464 6.46022 45.7257 -21.418C74.8646 -40.5404 96.2635 -25.0377 107.73 14.3603C117.052 46.39 117.91 90.8507 110.474 113.158C101.058 141.408 74.1726 154.178 29.9698 151.499L29.644 151.479L28.5801 148.576ZM109.526 112.842C116.893 90.7414 116.038 46.4854 106.77 14.6398C95.4641 -24.206 74.709 -39.2422 46.2744 -20.5819C3.8512 7.25827 -1.45989 64.3525 30.4691 150.827L30.356 150.519L31.339 150.576C73.9202 152.879 99.8407 140.568 109.243 113.67L109.526 112.842Z"
                                            fill="white" blush:i="0.3.0.0.0.0.2.0.0.20" />
                                        <path id="Path 34_2" fill-rule="evenodd" clip-rule="evenodd"
                                            d="M23.6457 140.78C0.418238 73.0412 4.66975 28.0541 36.5235 5.9208C58.4398 -9.30753 74.5451 3.04626 83.1471 34.3397C90.1303 59.7441 90.7729 95.0035 85.2007 112.703C78.1343 135.149 57.9475 145.302 24.7981 143.174L24.4671 143.153L23.6457 140.78ZM84.2469 112.403C89.757 94.9002 89.1179 59.8341 82.1829 34.6047C73.7357 3.87441 58.2815 -7.97987 37.0941 6.74202C5.43159 28.7425 1.42223 73.859 25.1925 142.196L25.1923 142.196L25.3022 142.511C25.2656 142.406 25.229 142.301 25.1925 142.196L25.8402 142.236C57.6646 144.059 77.0136 134.328 84.0358 113.058L84.2469 112.403Z"
                                            fill="white" blush:i="0.3.0.0.0.0.2.0.0.21" />
                                        <path id="Path 34_3" fill-rule="evenodd" clip-rule="evenodd"
                                            d="M20.8049 120.415C1.37932 69.2001 4.93917 35.1475 31.6087 18.3953C49.9567 6.87011 63.4587 16.2327 70.6632 39.9264C76.5062 59.1424 77.0438 85.8058 72.3771 99.2064C66.4529 116.218 49.5582 123.899 21.8381 122.291L21.5165 122.272L20.8049 120.415ZM71.4327 98.8775C76.0246 85.6918 75.4914 59.2422 69.7065 40.2173C62.6674 17.0679 49.8032 8.14746 32.1406 19.2421C5.70585 35.8468 2.39417 69.9224 22.3336 121.612L22.2182 121.31L22.7124 121.337C49.2747 122.713 65.4107 115.378 71.257 99.3702L71.4327 98.8775Z"
                                            fill="white" blush:i="0.3.0.0.0.0.2.0.0.22" />
                                    </g>
                                </g>
                            </g>
                        </g>
                        <g id="Patterns_3" blush:i="0.3.0.0.0.1">
                            <path id="Mask_3" fill-rule="evenodd" clip-rule="evenodd"
                                d="M143.677 352.328C131.006 377.228 137.22 409.211 155.202 430.593C173.185 451.974 201.107 463.4 228.965 465.524C256.823 467.648 284.722 461.25 311.016 451.806C331.365 444.497 351.537 435.009 366.613 419.509C381.688 404.008 390.929 381.482 385.993 360.431C374.273 310.444 312.926 307.159 271.858 309.057C226.927 311.134 168.228 304.084 143.677 352.328"
                                fill="#2088A8" blush:i="0.3.0.0.0.1.0" />
                            <mask id="mask1_203_4160310b63c96-785d-4b7d-835f-5232ed6656bc"
                                style="mask-type:alpha" maskUnits="userSpaceOnUse" x="137" y="308"
                                width="251" height="158" blush:i="0.3.0.0.0.1.1" fill="#ffffff">
                                <path id="Mask_4" fill-rule="evenodd" clip-rule="evenodd"
                                    d="M143.677 352.328C131.006 377.228 137.22 409.211 155.202 430.593C173.185 451.974 201.107 463.4 228.965 465.524C256.823 467.648 284.722 461.25 311.016 451.806C331.365 444.497 351.537 435.009 366.613 419.509C381.688 404.008 390.929 381.482 385.993 360.431C374.273 310.444 312.926 307.159 271.858 309.057C226.927 311.134 168.228 304.084 143.677 352.328"
                                    fill="#ffffff" blush:i="0.3.0.0.0.1.1.0" />
                            </mask>
                            <g mask="url(#mask1_203_4160310b63c96-785d-4b7d-835f-5232ed6656bc)"
                                blush:i="0.3.0.0.0.1.2">
                                <g id="Patterns_4" blush:i="0.3.0.0.0.1.2.0">
                                    <g id="Group_2" blush:i="0.3.0.0.0.1.2.0.0">
                                        <path id="Path 23_5" fill-rule="evenodd" clip-rule="evenodd"
                                            d="M295.681 179.798C306.439 174.546 315.326 170.922 323.526 168.586C342.994 163.04 358.974 164.831 374.418 175.334C382.052 180.525 389.57 187.89 397.164 197.673C417.099 223.355 415.886 259.206 395.475 288.359C373.92 319.148 335.704 336.38 291.128 331.765C246.994 327.196 221.601 304.39 218.727 272.691C216.097 243.679 233.458 212.945 261.99 197.54C281.616 186.943 285.677 184.759 291.461 181.879L295.681 179.798ZM396.374 198.286C388.84 188.581 381.396 181.289 373.856 176.161C358.672 165.835 342.998 164.079 323.8 169.548C315.438 171.93 306.337 175.67 295.221 181.136C290.42 183.498 287.913 184.752 281.926 187.943L262.465 198.42C234.278 213.639 217.13 243.996 219.723 272.601C222.551 303.797 247.549 326.248 291.231 330.77C335.447 335.348 373.31 318.276 394.656 287.786C414.828 258.974 416.024 223.602 396.374 198.286Z"
                                            fill="white" blush:i="0.3.0.0.0.1.2.0.0.0" />
                                        <path id="Path 27_6" fill-rule="evenodd" clip-rule="evenodd"
                                            d="M-23.7497 334.735C-22.6521 297.143 0.118809 265.464 41.8216 249.533C94.6146 229.365 133.355 222.591 161.658 232.026C196.109 243.509 212.786 279.229 209.499 344.025C206.289 407.314 179.778 442.427 136.851 451.24C101.98 458.399 57.9208 446.841 23.7259 424.418C-6.49306 404.602 -24.7696 369.666 -23.7497 334.735ZM208.501 343.975C211.767 279.579 195.291 244.291 161.342 232.974C133.324 223.635 94.7686 230.377 42.1785 250.467C0.850948 266.255 -21.6644 297.578 -22.7501 334.765C-23.7599 369.348 -5.65461 403.956 24.2742 423.582C58.2644 445.871 102.065 457.36 136.65 450.26C179.103 441.545 205.312 406.832 208.501 343.975Z"
                                            fill="white" blush:i="0.3.0.0.0.1.2.0.0.1" />
                                        <path id="Path 27_7" fill-rule="evenodd" clip-rule="evenodd"
                                            d="M6.58717 336.268C7.40002 308.416 24.2648 284.944 55.1391 273.144C94.1883 258.22 122.848 253.207 143.806 260.196C169.336 268.71 181.69 295.18 179.258 343.148C176.882 390.005 157.246 416.023 125.454 422.552C99.6416 427.854 67.0407 419.298 41.7383 402.699C19.3637 388.021 5.83199 362.144 6.58717 336.268ZM178.259 343.097C180.671 295.53 168.518 269.491 143.49 261.145C122.817 254.251 94.3424 259.232 55.4961 274.078C24.9971 285.735 8.38774 308.851 7.58674 336.297C6.84171 361.825 20.2022 387.375 42.2868 401.863C67.3845 418.328 99.7267 426.815 125.253 421.573C156.571 415.14 175.905 389.523 178.259 343.097Z"
                                            fill="white" blush:i="0.3.0.0.0.1.2.0.0.2" />
                                        <path id="Path 27_8" fill-rule="evenodd" clip-rule="evenodd"
                                            d="M26.5802 337.264C27.2054 315.742 40.1772 297.602 63.915 288.487C93.907 276.97 115.923 273.1 132.041 278.501C151.692 285.085 161.196 305.545 159.327 342.578C157.501 378.758 142.398 398.865 117.944 403.912C98.1003 408.007 73.0504 401.401 53.6082 388.586C36.4037 377.246 25.9995 357.256 26.5802 337.264ZM158.328 342.527C160.177 305.895 150.874 285.865 131.724 279.449C115.893 274.145 94.0618 277.982 64.2734 289.42C40.9108 298.392 28.1932 316.176 27.5798 337.293C27.0092 356.938 37.2432 376.602 54.1586 387.752C73.3955 400.431 98.1857 406.968 117.742 402.932C141.721 397.984 156.524 378.276 158.328 342.527Z"
                                            fill="white" blush:i="0.3.0.0.0.1.2.0.0.3" />
                                        <path id="Path 28_3" fill-rule="evenodd" clip-rule="evenodd"
                                            d="M219.262 401.515C224.004 380.583 234.75 364.853 251.86 355.823C271.165 345.636 298.129 344.183 333.116 352.514C400.077 368.457 442.905 399.519 460.829 438.667C475.519 470.749 471.008 505.699 452.353 524.354C435.582 541.124 390.86 553.231 344.883 554C294.267 554.846 253.896 542.211 239.566 517.249C221.421 485.641 211.358 436.406 219.262 401.515ZM459.92 439.083C442.134 400.237 399.564 369.363 332.884 353.486C298.114 345.208 271.391 346.647 252.327 356.708C235.495 365.591 224.918 381.072 220.237 401.735C212.393 436.362 222.405 485.347 240.433 516.751C254.53 541.306 294.579 553.84 344.866 553C390.608 552.236 435.102 540.19 451.646 523.646C469.99 505.302 474.443 470.802 459.92 439.083Z"
                                            fill="white" blush:i="0.3.0.0.0.1.2.0.0.4" />
                                        <path id="Path 28_4" fill-rule="evenodd" clip-rule="evenodd"
                                            d="M264.146 494.079C250.296 473.466 242.617 441.366 248.655 418.594C256.487 389.055 284.816 376.282 335.492 386.591C386.519 396.971 419.167 417.202 432.845 442.726C444.078 463.685 440.625 486.539 426.351 498.735C413.553 509.67 379.478 517.551 344.444 518.051C305.862 518.602 275.096 510.376 264.146 494.079ZM431.964 443.198C418.443 417.969 386.051 397.896 335.293 387.571C285.089 377.358 257.301 389.887 249.621 418.851C243.665 441.317 251.275 473.13 264.976 493.521C275.677 509.447 306.161 517.598 344.43 517.052C379.25 516.554 413.126 508.719 425.701 497.975C439.606 486.095 442.981 463.756 431.964 443.198Z"
                                            fill="white" blush:i="0.3.0.0.0.1.2.0.0.5" />
                                        <path id="Path 28_5" fill-rule="evenodd" clip-rule="evenodd"
                                            d="M292.749 495.875C283.928 481.998 279.039 460.398 282.886 445.06C287.887 425.126 305.991 416.498 338.284 423.441C370.758 430.424 391.551 444.044 400.268 461.236C407.435 475.372 405.231 490.795 396.104 499.038C387.93 506.42 366.237 511.723 343.933 512.06L343.197 512.069C318.967 512.319 299.68 506.779 292.749 495.875ZM399.376 461.688C390.81 444.793 370.275 431.343 338.074 424.419C306.266 417.58 288.712 425.946 283.856 445.304C280.082 460.35 284.909 481.677 293.593 495.339C300.35 505.968 319.661 511.426 343.918 511.06C366.001 510.726 387.485 505.474 395.434 498.296C404.212 490.368 406.346 475.436 399.376 461.688Z"
                                            fill="white" blush:i="0.3.0.0.0.1.2.0.0.6" />
                                        <path id="Path 28_6" fill-rule="evenodd" clip-rule="evenodd"
                                            d="M315.701 477.246C310.843 472.224 308.15 464.402 310.291 458.791C313.062 451.532 322.936 448.439 340.478 450.918L341.17 451.018C358.385 453.535 369.444 458.349 374.152 464.453C378.163 469.652 376.915 475.391 371.819 478.416C367.36 481.063 355.611 482.95 343.522 483.07C330.177 483.203 319.553 481.229 315.701 477.246ZM373.36 465.063C368.782 459.128 357.716 454.364 340.338 451.908C323.203 449.487 313.787 452.436 311.225 459.148C309.244 464.34 311.806 471.781 316.419 476.551C319.902 480.152 329.824 482.083 342.349 482.077L343.512 482.07C355.436 481.952 367.045 480.087 371.308 477.556C375.898 474.832 376.997 469.778 373.36 465.063Z"
                                            fill="white" blush:i="0.3.0.0.0.1.2.0.0.7" />
                                        <path id="Oval_3" fill-rule="evenodd" clip-rule="evenodd"
                                            d="M377.5 340C377.5 332.722 383.342 327.5 391 327.5C398.658 327.5 404.5 332.722 404.5 340C404.5 347.104 398.918 351.5 391 351.5C383.082 351.5 377.5 347.104 377.5 340ZM403.5 340C403.5 333.3 398.129 328.5 391 328.5C383.871 328.5 378.5 333.3 378.5 340C378.5 346.492 383.589 350.5 391 350.5C398.411 350.5 403.5 346.492 403.5 340Z"
                                            fill="white" blush:i="0.3.0.0.0.1.2.0.0.8" />
                                        <path id="Path 31" fill-rule="evenodd" clip-rule="evenodd"
                                            d="M-17.2294 491.556C1.49359 481.892 52.4979 470.113 96.84 467.001C156.082 462.844 200.506 472.709 219.41 499.713C232.002 517.702 233.881 532.79 226.656 545.202C220.819 555.229 209.348 563.063 193.777 569.106C187.23 571.647 180.271 573.748 172.952 575.529C170.197 576.2 167.513 576.796 164.719 577.371C164.202 577.478 163.698 577.58 163.175 577.685L159.098 578.49C151.357 580.038 99.1951 562.305 53.5517 542.584L52.543 542.147C28.7285 531.821 9.00765 521.968 -3.88723 513.721L-4.96063 513.028C-12.2085 508.302 -17.0857 504.167 -19.3711 500.687C-21.9196 496.806 -21.2625 493.637 -17.2294 491.556ZM225.792 544.699C232.802 532.655 230.975 517.979 218.59 500.287C199.953 473.662 155.83 463.864 96.91 467.999C52.6923 471.102 1.81486 482.852 -16.7707 492.444C-20.2537 494.242 -20.7704 496.734 -18.5352 500.138C-16.4491 503.314 -12.0057 507.149 -5.41856 511.529L-4.41445 512.191C8.21387 520.425 27.9535 530.358 51.9397 540.795L53.9483 541.666C99.2912 561.257 151.47 578.996 158.902 577.51L162.45 576.81C163.165 576.668 163.83 576.533 164.517 576.392L166.175 576.045C168.372 575.578 170.521 575.092 172.716 574.558C179.995 572.786 186.913 570.698 193.416 568.174C208.795 562.205 220.092 554.489 225.792 544.699Z"
                                            fill="white" blush:i="0.3.0.0.0.1.2.0.0.9" />
                                        <path id="Path 33" fill-rule="evenodd" clip-rule="evenodd"
                                            d="M183.695 450.245C186.14 446.126 191.737 442.555 198.862 440.519C202.414 439.505 204.642 440.77 205.225 443.78C205.718 446.323 204.985 450 203.331 453.704C199.5 462.287 192.97 467.233 187.706 463.404C182.303 459.475 181.018 454.753 183.695 450.245ZM202.418 453.296C203.996 449.762 204.69 446.277 204.243 443.97C203.775 441.552 202.139 440.623 199.137 441.481C192.236 443.453 186.851 446.889 184.555 450.755C182.156 454.795 183.288 458.955 188.294 462.596C192.84 465.902 198.809 461.382 202.418 453.296Z"
                                            fill="white" blush:i="0.3.0.0.0.1.2.0.0.10" />
                                        <path id="Oval_4" fill-rule="evenodd" clip-rule="evenodd"
                                            d="M222.5 341C222.5 334.963 225.182 330.5 230 330.5C234.988 330.5 239.5 336.397 239.5 342C239.5 347.076 235.455 350.5 230 350.5C225.087 350.5 222.5 346.766 222.5 341ZM238.5 342C238.5 336.899 234.369 331.5 230 331.5C225.869 331.5 223.5 335.444 223.5 341C223.5 346.276 225.734 349.5 230 349.5C234.937 349.5 238.5 346.483 238.5 342Z"
                                            fill="white" blush:i="0.3.0.0.0.1.2.0.0.11" />
                                    </g>
                                </g>
                            </g>
                        </g>
                    </g>
                </g>
                <g id="Heads" blush:component="Heads" blush:defaultValue="Round" blush:width="200"
                    blush:height="200" transform="translate(508 359) scale(1 1)" blush:i="0.3.0.1"
                    blush:value="Diamond" blush:viewBox="5 12 188.99999999999994 175.00000000000006">
                    <g id="Heads/Diamond" blush:viewBox="5 12 188.99999999999994 175.00000000000006"
                        blush:i="0.3.0.1.0">
                        <g id="Patterns" blush:i="0.3.0.1.0.0">
                            <path id="Mask" fill-rule="evenodd" clip-rule="evenodd"
                                d="M45.1359 34.9915C93.3573 3.25145 116.372 5.44042 151.442 34.9915C186.512 64.5426 220.486 111.605 163.497 155.385C106.509 199.164 80.206 195.881 35.2725 155.385C-9.66105 114.889 -3.08541 66.7315 45.1359 34.9915Z"
                                fill="#7AD8DF" blush:i="0.3.0.1.0.0.0" />
                            <mask id="mask0_203_43402bbf6df0c-3006-4215-b5d5-8dbd29372623"
                                style="mask-type:alpha" maskUnits="userSpaceOnUse" x="5" y="12"
                                width="189" height="175" blush:i="0.3.0.1.0.0.1" fill="#ffffff">
                                <path id="Mask_2" fill-rule="evenodd" clip-rule="evenodd"
                                    d="M45.1359 34.9915C93.3573 3.25145 116.372 5.44042 151.442 34.9915C186.512 64.5426 220.486 111.605 163.497 155.385C106.509 199.164 80.206 195.881 35.2725 155.385C-9.66105 114.889 -3.08541 66.7315 45.1359 34.9915Z"
                                    fill="#ffffff" blush:i="0.3.0.1.0.0.1.0" />
                            </mask>
                            <g mask="url(#mask0_203_43402bbf6df0c-3006-4215-b5d5-8dbd29372623)"
                                blush:i="0.3.0.1.0.0.2">
                                <g id="Pattern" blush:i="0.3.0.1.0.0.2.0">
                                    <g id="Group" blush:i="0.3.0.1.0.0.2.0.0">
                                        <path id="Path 23" fill-rule="evenodd" clip-rule="evenodd"
                                            d="M170.751 166.606L171.75 166.305C182.764 163.045 191.825 164.1 200.571 170.279C204.886 173.327 209.13 177.646 213.414 183.38C224.682 198.46 223.997 219.5 212.47 236.603C200.301 254.66 178.724 264.767 153.566 262.061C128.639 259.381 114.272 245.977 112.647 227.353C111.161 210.321 120.968 192.286 137.089 183.243C157.123 172.006 162.862 169.034 170.751 166.606ZM212.613 183.978C208.388 178.324 204.216 174.079 199.994 171.096C191.513 165.105 182.769 164.087 172.033 167.264C164.62 169.457 159.574 171.86 143.901 180.581L137.579 184.115C121.796 192.968 112.192 210.63 113.643 227.266C115.225 245.394 129.203 258.436 153.673 261.067C178.461 263.733 199.678 253.795 211.641 236.044C222.942 219.276 223.612 198.698 212.613 183.978Z"
                                            fill="white" blush:i="0.3.0.1.0.0.2.0.0.0" />
                                        <path id="Path 23_2" fill-rule="evenodd" clip-rule="evenodd"
                                            d="M148.816 146.828C158.777 142.004 167.071 138.648 174.742 136.462C193.505 131.115 208.908 132.842 223.794 142.968C231.151 147.973 238.396 155.073 245.714 164.505C264.927 189.265 263.759 223.828 244.088 251.934C223.314 281.615 186.485 298.227 143.528 293.779C100.994 289.374 76.5203 267.386 73.7506 236.823C71.2158 208.853 87.9478 179.223 115.445 164.371C133.466 154.638 137.867 152.268 143.065 149.664L148.816 146.828ZM244.924 165.118C237.666 155.764 230.495 148.737 223.231 143.795C208.606 133.846 193.509 132.154 175.016 137.424C166.96 139.719 158.191 143.324 147.482 148.593L146.35 149.15C141.841 151.374 139.252 152.694 132.127 156.514L115.921 165.251C88.7679 179.917 72.2486 209.17 74.7466 236.733C77.4706 266.792 101.55 288.426 143.631 292.784C186.229 297.195 222.704 280.743 243.269 251.361C262.701 223.596 263.853 189.511 244.924 165.118Z"
                                            fill="white" blush:i="0.3.0.1.0.0.2.0.0.1" />
                                        <path id="Path 23_3" fill-rule="evenodd" clip-rule="evenodd"
                                            d="M168.409 187.747L169.217 187.512C175.695 185.683 181.039 186.276 186.194 189.752C188.73 191.462 191.222 193.882 193.734 197.09C200.373 205.569 199.97 217.395 193.19 226.994C186.047 237.11 173.389 242.768 158.643 241.255C144.01 239.753 135.545 232.215 134.586 221.733C133.711 212.157 139.48 202.032 148.958 196.958C160.47 190.796 163.902 189.092 168.409 187.747ZM192.947 197.707C190.496 194.576 188.078 192.228 185.635 190.581C180.74 187.281 175.699 186.721 169.489 188.474C165.322 189.651 162.436 190.94 153.984 195.413L149.43 197.84C140.298 202.728 134.744 212.476 135.582 221.642C136.495 231.62 144.564 238.805 158.745 240.26C173.134 241.737 185.44 236.236 192.374 226.418C198.911 217.161 199.298 205.818 192.947 197.707Z"
                                            fill="white" blush:i="0.3.0.1.0.0.2.0.0.2" />
                                        <path id="Path 24" fill-rule="evenodd" clip-rule="evenodd"
                                            d="M-21.7292 70.6453C15.4748 29.0456 65.6708 -5.30909 104.078 -12.9855C141.728 -20.5105 168.531 -10.8072 182.25 11.5902C193.987 30.7513 194.434 57.6331 184.315 78.8695C171.455 105.858 136.497 134.062 79.3731 163.562C24.2026 182.153 -19.1461 182.153 -50.6539 163.518C-72.9584 150.326 -59.5613 112.947 -21.7292 70.6453ZM183.412 78.4393C193.391 57.4972 192.95 30.9729 181.397 12.1125C167.912 -9.90346 141.535 -19.4523 104.274 -12.0049C66.1125 -4.37759 16.0888 29.8592 -20.9838 71.312C-58.4244 113.176 -71.6091 149.962 -50.1449 162.657C-18.9265 181.121 24.1334 181.121 78.984 162.643C135.861 133.266 170.67 105.181 183.412 78.4393Z"
                                            fill="white" blush:i="0.3.0.1.0.0.2.0.0.3" />
                                        <path id="Path 24_2" fill-rule="evenodd" clip-rule="evenodd"
                                            d="M1.72526 73.0528C29.0549 41.3998 65.9282 15.2596 94.1591 9.41507C121.855 3.68124 141.593 11.0827 151.694 28.1637C160.33 42.7671 160.659 63.2452 153.216 79.4253C143.761 99.9772 118.079 121.44 76.0996 143.893C35.5607 158.043 3.69372 158.043 -19.4786 143.847C-35.9496 133.757 -26.0933 105.272 1.72526 73.0528ZM152.307 79.0074C159.619 63.1143 159.295 42.9815 150.833 28.6727C140.963 11.9811 121.66 4.74286 94.3619 10.3943C66.3818 16.1869 29.681 42.2048 2.48217 73.7063C-24.959 105.489 -34.6171 133.4 -18.9563 142.994C3.92041 157.009 35.4882 157.009 75.699 142.98C117.431 120.653 142.966 99.3129 152.307 79.0074Z"
                                            fill="white" blush:i="0.3.0.1.0.0.2.0.0.4" />
                                        <path id="Path 24_3" fill-rule="evenodd" clip-rule="evenodd"
                                            d="M23.5027 75.3158C41.2532 55.1269 65.2012 38.4549 83.556 34.7233C101.588 31.0572 114.466 35.7992 121.059 46.7482C126.694 56.1054 126.908 69.2155 122.055 79.576C116.024 92.4493 99.8793 105.858 73.5552 119.875L71.9308 120.734C45.5919 129.763 24.8716 129.763 9.7905 120.69C-1.0434 114.172 5.38834 95.9185 23.5027 75.3158ZM121.149 79.1517C125.867 69.082 125.658 56.3235 120.202 47.264C113.841 36.7004 101.395 32.1171 83.7552 35.7032C65.6487 39.3844 41.873 55.9364 24.2537 75.9761L23.7253 76.5803C6.40106 96.4936 0.397755 113.872 10.306 119.833C25.0946 128.73 45.5212 128.73 71.5361 119.819C98.5743 105.613 115.111 92.0413 121.149 79.1517Z"
                                            fill="white" blush:i="0.3.0.1.0.0.2.0.0.5" />
                                        <path id="Path 24_4" fill-rule="evenodd" clip-rule="evenodd"
                                            d="M46.4605 81.7534C53.892 71.5015 63.919 63.0348 71.6528 61.1277C79.3092 59.2397 84.8224 61.7021 87.6267 67.3506C90.0023 72.1356 90.0925 78.8177 88.0501 84.106C85.4637 90.8025 78.4728 97.7613 67.0116 105.056C55.9439 109.658 47.1934 109.658 40.8081 104.998C36.2401 101.665 38.716 92.699 45.9367 82.485L46.4605 81.7534ZM87.1172 83.7457C89.0625 78.709 88.9762 72.3177 86.731 67.7953C84.1377 62.5718 79.0992 60.3215 71.8923 62.0986C64.434 63.9377 54.576 72.2617 47.2701 82.3403C39.9577 92.428 37.3901 101.266 41.3976 104.19C47.458 108.613 55.852 108.613 66.551 104.173C77.772 97.0221 84.6237 90.2019 87.1172 83.7457Z"
                                            fill="white" blush:i="0.3.0.1.0.0.2.0.0.6" />
                                        <path id="Path 26" fill-rule="evenodd" clip-rule="evenodd"
                                            d="M180.406 122.241C176.626 118.819 176.4 114.343 180.47 109.276C188.965 98.7007 204.759 99.0663 207.817 109.448C210.751 119.411 203.868 128.424 194.048 127.424C188.707 126.88 183.445 124.993 180.406 122.241ZM194.149 126.429C203.241 127.355 209.597 119.031 206.857 109.731C204.06 100.232 189.292 99.8898 181.25 109.902C177.504 114.566 177.7 118.441 181.077 121.499C183.936 124.087 189.002 125.905 194.149 126.429Z"
                                            fill="white" blush:i="0.3.0.1.0.0.2.0.0.7" />
                                        <path id="Path 35" fill-rule="evenodd" clip-rule="evenodd"
                                            d="M-150.003 -7.53104C-142.966 -30.8269 -133.166 -54.7348 -120.602 -79.2551C-111.615 -96.7947 -81.5841 -102.685 -39.9586 -97.9508C-3.42554 -93.7957 37.4919 -81.6552 62.0311 -67.9013C84.7844 -55.1484 75.1949 -29.3695 42.9613 -4.20279C11.2374 20.566 -32.3895 36.9099 -65.3261 34.2005C-112.341 30.3329 -140.742 17.0892 -150.459 -5.60445L-150.53 -5.77049L-150.003 -7.53104ZM61.5421 -67.029C37.1267 -80.7135 -3.66376 -92.8164 -40.0717 -96.9572C-81.3088 -101.647 -110.988 -95.826 -119.712 -78.7991C-132.502 -53.8361 -142.421 -29.5142 -149.468 -5.8335L-149.469 -5.834L-149.52 -5.6589C-149.503 -5.71709 -149.486 -5.7753 -149.468 -5.8335L-149.248 -5.33275C-139.54 16.3116 -112.025 29.1409 -66.6391 33.0859L-65.2441 33.2038C-32.5858 35.8904 10.8049 19.635 42.3459 -4.991C74.1072 -29.7889 83.4024 -54.7766 61.5421 -67.029Z"
                                            fill="white" blush:i="0.3.0.1.0.0.2.0.0.8" />
                                        <path id="Path 35_2" fill-rule="evenodd" clip-rule="evenodd"
                                            d="M-140.043 -19.7707C-134.235 -42.4771 -126.158 -65.7789 -115.812 -89.6763C-108.379 -106.846 -83.5164 -112.617 -49.0983 -107.984C-18.9059 -103.92 14.9066 -92.0469 35.1887 -78.5931C53.9869 -66.1237 46.0793 -40.9654 19.4499 -16.3591C-6.77075 7.86954 -42.8348 23.8594 -70.0837 21.2065C-108.948 17.4227 -132.442 4.45713 -140.47 -17.7334L-140.522 -17.877L-140.043 -19.7707ZM34.636 -77.7598C14.4868 -91.1254 -19.1826 -102.949 -49.2317 -106.993C-83.2491 -111.572 -107.701 -105.896 -114.895 -89.279C-125.462 -64.87 -133.656 -41.0874 -139.478 -17.9315L-139.478 -17.933L-139.515 -17.7818C-139.503 -17.8317 -139.49 -17.8816 -139.478 -17.9315L-139.289 -17.4235C-131.275 3.72375 -108.587 16.2438 -71.1378 20.096L-69.9868 20.2112C-43.0613 22.8326 -7.25827 6.95846 18.7712 -17.0935C44.9947 -41.3247 52.6838 -65.788 34.636 -77.7598Z"
                                            fill="white" blush:i="0.3.0.1.0.0.2.0.0.9" />
                                    </g>
                                </g>
                            </g>
                        </g>
                    </g>
                </g>
                <g id="Eyes" blush:component="Eyes" blush:defaultValue="Tiny" blush:width="110"
                    blush:height="80" transform="translate(589 429) scale(1 1)" blush:i="0.3.0.2"
                    blush:value="Sunglasses 2"
                    blush:viewBox="-1.1000000000000085 5.934065934065927 112.19999999999997 67.03296703296702">
                    <g id="Eyes/Sunglasses 2"
                        blush:viewBox="-1.1000000000000085 5.934065934065927 112.19999999999997 67.03296703296702"
                        blush:i="0.3.0.2.0">
                        <g id="Group" blush:i="0.3.0.2.0.0">
                            <path id="Combined Shape" fill-rule="evenodd" clip-rule="evenodd"
                                d="M47.0196 29.0027C43.8528 44.5329 34.6578 45.6285 26.5478 45.6285C17.8882 45.6285 6.7545 45.6285 3.04327 21.8952C3.04327 21.8952 -0.667969 21.8952 -0.667969 14.4004C-0.667969 5.65656 8.00316 4.93462 26.5478 6.90569C32.9468 7.58583 37.5191 8.53665 40.7581 9.76394L69.1327 9.80437C72.3777 8.55752 76.9799 7.59328 83.449 6.90569C101.994 4.93462 110.665 5.65656 110.665 14.4004C110.665 21.8952 106.954 21.8952 106.954 21.8952C103.242 45.6285 92.1086 45.6285 83.449 45.6285C75.3391 45.6285 66.1442 44.5329 62.9773 29.0032C57.4354 21.9122 52.5614 21.9121 47.0196 29.0027ZM47.199 14.6959C48.3 16.8377 48.3014 19.3671 47.9955 22.2934C52.6109 18.8892 57.3859 18.8893 62.0013 22.2936C61.6964 19.3774 61.6968 16.8553 62.7865 14.7181L47.199 14.6959Z"
                                fill="#001D2D" blush:i="0.3.0.2.0.0.0" />
                            <g id="Combined Shape_2" blush:i="0.3.0.2.0.0.1">
                                <g id="Combined Shape_3" blush:i="0.3.0.2.0.0.1.0">
                                    <path id="Mask" fill-rule="evenodd" clip-rule="evenodd"
                                        d="M67.5444 25.8142C69.4086 39.8154 76.9654 41.8543 83.4901 41.8543C90.0149 41.8543 103.116 40.6204 103.116 18.4111C103.116 9.77411 97.8088 10.2119 83.836 11.6847C66.1261 13.5516 66.5407 18.2757 67.5444 25.8142Z"
                                        fill="#275CA5" blush:i="0.3.0.2.0.0.1.0.0" />
                                    <mask id="mask0_203_43188efd75a0b-672b-4798-a7c2-cb0afe4b72ee"
                                        style="mask-type:alpha" maskUnits="userSpaceOnUse" x="67"
                                        y="10" width="37" height="32" blush:i="0.3.0.2.0.0.1.0.1"
                                        fill="#ffffff">
                                        <path id="Mask_2" fill-rule="evenodd" clip-rule="evenodd"
                                            d="M67.5444 25.8142C69.4086 39.8154 76.9654 41.8543 83.4901 41.8543C90.0149 41.8543 103.116 40.6204 103.116 18.4111C103.116 9.77411 97.8088 10.2119 83.836 11.6847C66.1261 13.5516 66.5407 18.2757 67.5444 25.8142Z"
                                            fill="#ffffff" blush:i="0.3.0.2.0.0.1.0.1.0" />
                                    </mask>
                                    <g
                                        mask="url(#mask0_203_43188efd75a0b-672b-4798-a7c2-cb0afe4b72ee)"
                                        blush:i="0.3.0.2.0.0.1.0.2">
                                        <path id="Combined Shape_4" fill-rule="evenodd"
                                            clip-rule="evenodd"
                                            d="M98.2273 7.20989L92.5686 1.65112L59.8594 36.4047L65.5181 41.9634L98.2273 7.20989ZM108.695 13.8933L103.036 8.33454L70.3271 43.0881L75.9858 48.6469L108.695 13.8933Z"
                                            fill="#85CEFF" blush:i="0.3.0.2.0.0.1.0.2.0" />
                                    </g>
                                </g>
                            </g>
                            <g id="Combined Shape Copy" blush:i="0.3.0.2.0.0.2">
                                <g id="Combined Shape_5" blush:i="0.3.0.2.0.0.2.0">
                                    <path id="Mask_3" fill-rule="evenodd" clip-rule="evenodd"
                                        d="M43.4009 25.8142C41.5367 39.8154 33.9799 41.8543 27.4552 41.8543C20.9304 41.8543 7.82964 40.6204 7.82964 18.4111C7.82964 9.77411 13.1365 10.2119 27.1093 11.6847C44.8192 13.5516 44.4046 18.2757 43.4009 25.8142Z"
                                        fill="#275CA5" blush:i="0.3.0.2.0.0.2.0.0" />
                                    <mask id="mask1_203_43188efd75a0b-672b-4798-a7c2-cb0afe4b72ee"
                                        style="mask-type:alpha" maskUnits="userSpaceOnUse" x="7"
                                        y="10" width="37" height="32" blush:i="0.3.0.2.0.0.2.0.1"
                                        fill="#ffffff">
                                        <path id="Mask_4" fill-rule="evenodd" clip-rule="evenodd"
                                            d="M43.4009 25.8142C41.5367 39.8154 33.9799 41.8543 27.4552 41.8543C20.9304 41.8543 7.82964 40.6204 7.82964 18.4111C7.82964 9.77411 13.1365 10.2119 27.1093 11.6847C44.8192 13.5516 44.4046 18.2757 43.4009 25.8142Z"
                                            fill="#ffffff" blush:i="0.3.0.2.0.0.2.0.1.0" />
                                    </mask>
                                    <g
                                        mask="url(#mask1_203_43188efd75a0b-672b-4798-a7c2-cb0afe4b72ee)"
                                        blush:i="0.3.0.2.0.0.2.0.2">
                                        <path id="Combined Shape_6" fill-rule="evenodd"
                                            clip-rule="evenodd"
                                            d="M12.7219 7.20989L18.3806 1.65112L51.0898 36.4047L45.4312 41.9634L12.7219 7.20989ZM2.25428 13.8933L7.91297 8.33457L40.6222 43.0881L34.9635 48.6469L2.25428 13.8933Z"
                                            fill="#85CEFF" blush:i="0.3.0.2.0.0.2.0.2.0" />
                                    </g>
                                </g>
                            </g>
                        </g>
                        <g id="Group_2" blush:i="0.3.0.2.0.1">
                            <path id="Clip 11" fill-rule="evenodd" clip-rule="evenodd"
                                d="M41.2393 52.7903C28.0133 49.1832 30.8604 67.8868 41.2393 70.7175C51.6182 73.5481 58.2229 73.5481 67.6583 70.7175C80.5774 66.8417 79.4355 48.8645 67.6583 52.7903C59.1664 55.6209 51.6182 55.6209 41.2393 52.7903Z"
                                fill="white" blush:i="0.3.0.2.0.1.0" />
                            <mask id="mask2_203_43188efd75a0b-672b-4798-a7c2-cb0afe4b72ee"
                                style="mask-type:alpha" maskUnits="userSpaceOnUse" x="32" y="52"
                                width="45" height="21" blush:i="0.3.0.2.0.1.1" fill="#ffffff">
                                <path id="Clip 11_2" fill-rule="evenodd" clip-rule="evenodd"
                                    d="M41.2393 52.7903C28.0133 49.1832 30.8604 67.8868 41.2393 70.7175C51.6182 73.5481 58.2229 73.5481 67.6583 70.7175C80.5774 66.8417 79.4355 48.8645 67.6583 52.7903C59.1664 55.6209 51.6182 55.6209 41.2393 52.7903Z"
                                    fill="#ffffff" blush:i="0.3.0.2.0.1.1.0" />
                            </mask>
                            <g mask="url(#mask2_203_43188efd75a0b-672b-4798-a7c2-cb0afe4b72ee)"
                                blush:i="0.3.0.2.0.1.2">
                                <path id="Fill 7" fill-rule="evenodd" clip-rule="evenodd"
                                    d="M43.6619 79.2486L41.2578 47.727L43.6959 47.5411L46.101 79.0618L43.6619 79.2486Z"
                                    fill="#BEDBEA" blush:i="0.3.0.2.0.1.2.0" />
                                <path id="Fill 4" fill-rule="evenodd" clip-rule="evenodd"
                                    d="M56.2591 81.5946L53.8125 81.5634L54.1937 51.5751L56.6393 51.6053L56.2591 81.5946Z"
                                    fill="#BEDBEA" blush:i="0.3.0.2.0.1.2.1" />
                                <path id="Fill 10" fill-rule="evenodd" clip-rule="evenodd"
                                    d="M67.0995 86.6679L64.668 86.4056L68.8101 48.0726L71.2435 48.3349L67.0995 86.6679Z"
                                    fill="#BEDBEA" blush:i="0.3.0.2.0.1.2.2" />
                            </g>
                        </g>
                    </g>
                </g>
                <g id="Head Accesory" blush:component="Head Accesory"
                    blush:defaultValue="Short Beanie" blush:width="200" blush:height="200"
                    transform="matrix(-1 0 0 1 708 166) scale(1 1)" blush:i="0.3.0.3"
                    blush:value="Cap" blush:viewBox="58 154 142.00000000000003 45.999999999999986">
                    <g id="Head Accesory/Cap"
                        blush:viewBox="58 154 142.00000000000003 45.999999999999986"
                        blush:i="0.3.0.3.0">
                        <path id="Fill 1" fill-rule="evenodd" clip-rule="evenodd"
                            d="M111.985 154C77.141 154 58 169.852 58 199.969V199.97H196.699C198.264 199.97 199.56 198.755 199.662 197.194C199.774 195.481 198.415 194.031 196.699 194.031H138.822C139.985 176.21 146.829 154 111.985 154"
                            fill="#FF7272" blush:i="0.3.0.3.0.0" />
                    </g>
                </g>
            </g>
        </g>
        <g id="Arms" blush:i="0.4">
            <path id="Combined Shape" fill-rule="evenodd" clip-rule="evenodd"
                d="M1162.02 601.643C1162.21 599.442 1164.16 597.819 1166.36 598.016C1168.56 598.213 1170.18 600.157 1169.98 602.357C1149.61 829.46 985.818 927.06 680.731 894.894C660.608 892.772 643.862 904.468 630.172 930.843C629.154 932.804 626.74 933.568 624.779 932.55C622.818 931.532 622.054 929.118 623.071 927.157C638.144 898.12 657.751 884.426 681.57 886.938C982.654 918.682 1142.1 823.673 1162.02 601.643ZM984.916 670.674C983.539 668.946 981.023 668.661 979.295 670.038C960.146 685.293 933.861 695.434 901.999 701.248C872.172 706.69 843.227 707.87 808.453 706.882L805.124 706.781L794.029 706.421C792.687 706.387 791.649 706.371 790.769 706.371L789.954 706.377C763.091 706.771 738.977 726.698 717.501 765.472C716.43 767.404 717.129 769.839 719.061 770.909C720.994 771.979 723.428 771.281 724.499 769.348C744.93 732.462 767.058 714.371 790.769 714.371C791.783 714.371 793.071 714.395 794.888 714.448L806.561 714.83C842.589 715.919 872.46 714.769 903.435 709.118C936.485 703.088 963.95 692.491 984.28 676.295C986.007 674.919 986.292 672.402 984.916 670.674ZM751.883 740.842C753.52 739.36 756.05 739.485 757.533 741.123C759.016 742.76 758.89 745.29 757.253 746.772C747.919 755.225 739.396 766.049 731.696 779.259C730.583 781.167 728.134 781.813 726.225 780.7C724.317 779.588 723.672 777.138 724.784 775.23C732.88 761.341 741.91 749.874 751.883 740.842ZM768.779 750.365C767.331 748.696 764.805 748.517 763.136 749.965C749.15 762.098 739.158 774.314 733.195 786.649C732.234 788.638 733.067 791.03 735.056 791.991C737.045 792.953 739.436 792.12 740.398 790.131C745.844 778.864 755.159 767.476 768.378 756.008C770.047 754.56 770.226 752.034 768.779 750.365ZM806.325 754.909C782.469 752.402 762.829 766.073 747.729 795.065C746.709 797.025 747.47 799.44 749.429 800.461C751.388 801.481 753.804 800.72 754.824 798.761C768.54 772.426 785.321 760.746 805.489 762.865L805.694 762.887C808.177 763.171 811.635 763.964 817.687 765.583L828.237 768.429C830.77 769.102 833.08 769.701 835.368 770.274L836.892 770.652C855.189 775.16 871.918 777.882 889.679 778.586C906.377 779.247 922.908 778.001 939.343 774.55C917.367 787.565 892.12 798.381 864.074 807.154C826.14 819.02 784.878 826.625 742.433 830.793C715.447 833.444 693.564 834.324 672.89 834.382L670.639 834.386C643.608 834.386 619.259 852.522 597.582 888.181C596.434 890.069 597.034 892.529 598.922 893.677C600.809 894.825 603.27 894.225 604.418 892.337C624.786 858.831 646.865 842.386 670.639 842.386C692.219 842.386 714.952 841.531 743.215 838.755L745.362 838.541C787.559 834.279 828.594 826.635 866.463 814.789C914.81 799.665 955.178 778.521 985.267 750.45C1020.55 717.538 1040.67 675.994 1043.2 625.181C1043.31 622.974 1041.61 621.097 1039.4 620.987L1039.2 620.982C1037.08 620.981 1035.31 622.644 1035.21 624.783C1032.79 673.471 1013.6 713.077 979.81 744.6C973.021 750.934 965.676 756.911 957.804 762.541C956.905 762.079 955.831 761.955 954.79 762.279C933.395 768.926 911.864 771.459 889.996 770.592C872.838 769.912 856.619 767.274 838.805 762.884C836.31 762.27 833.836 761.635 831.112 760.915L828.587 760.242L819.223 757.713C813.27 756.128 809.712 755.315 806.828 754.966L806.325 754.909ZM646.063 881.723C644.613 880.057 642.086 879.882 640.42 881.332C626.46 893.484 616.486 905.718 610.535 918.071C609.577 920.061 610.413 922.452 612.403 923.411C614.393 924.37 616.784 923.533 617.743 921.543C623.179 910.258 632.477 898.853 645.672 887.366C647.339 885.916 647.514 883.389 646.063 881.723ZM630.502 868.913C632.137 867.427 634.666 867.549 636.152 869.184C637.638 870.819 637.516 873.348 635.881 874.834C626.565 883.299 618.058 894.14 610.371 907.371C609.261 909.281 606.813 909.93 604.903 908.82C602.993 907.71 602.344 905.262 603.454 903.352C611.535 889.442 620.547 877.958 630.502 868.913Z"
                fill="#001D2D" blush:i="0.4.0" />
        </g>
    </g>
</svg>